<svg viewBox="0 0 48 48" xml:space="preserve" xmlns="http://www.w3.org/2000/svg" enable-background="new 0 0 48 48"><path d="M35.752 32.589c.13-.876.912-6.387 1.256-13.063-2.673-9.687-13.012-9.806-13.116-9.807-.47-.022-11.06-.456-12.867 10.457.36 6.383 1.098 11.565 1.223 12.413l6.044 4.521a.3.3 0 0 1 .118.272l-.267 2.518H24a.3.3 0 0 1 0 .6h-5.92l-.144 1.346 12.133-.02-.48-4.444a.3.3 0 0 1 .12-.272l6.043-4.521zM24.954 11.325c.059.005 1.442.118 2.216.605a.3.3 0 1 1-.32.508c-.648-.408-1.93-.514-1.943-.515-.165-.013-.288-.157-.275-.322s.163-.285.322-.276zm-10.82 4.383c.02-.021.049-.057.088-.104 2.453-2.959 5.607-4.56 8.904-4.466a.3.3 0 0 1 .293.307c-.004.165-.148.306-.308.292-3.087-.053-6.094 1.435-8.427 4.25-.15.18-.211.254-.36.254a.3.3 0 0 1-.19-.533zM20.24 29.7c-.668.39-1.427.586-2.273.586-.788 0-1.651-.17-2.583-.51-.093-.036-2.131-.85-2.882-2.91-.527-1.445-.281-3.118.73-4.97a.321.321 0 0 1 .279-.157c.246.013 5.334.302 8.071 2.833-.435-.88-1.257-1.943-2.811-2.53a.3.3 0 1 1 .212-.562c.394.15.774.337 1.13.565a5.567 5.567 0 0 1 1.976 2.196 6.034 6.034 0 0 1 .467 1.241c.03.12.056.24.076.36.035.208-.029.407-.083.605a6.386 6.386 0 0 1-.448 1.178c-.164.33-.358.645-.583.937a4.62 4.62 0 0 1-.872.868c-.13.098-.266.188-.406.27zm5.528 3.86-1.737.723a.294.294 0 0 1-.24-.005l-1.568-.723a.3.3 0 0 1 .252-.545l1.447.668 1.616-.672a.3.3 0 1 1 .23.554zm1.994-3.86a4.38 4.38 0 0 1-1.014-.825 5.266 5.266 0 0 1-.69-.957 6.31 6.31 0 0 1-.425-.912 6.04 6.04 0 0 1-.185-.566 2.556 2.556 0 0 1-.089-.492c-.01-.165.033-.316.071-.476a6.036 6.036 0 0 1 .873-1.962 5.598 5.598 0 0 1 1.477-1.467 5.984 5.984 0 0 1 1.24-.637.3.3 0 0 1 .212.562 5.058 5.058 0 0 0-2.883 2.675c2.718-2.595 7.894-2.891 8.142-2.904a.312.312 0 0 1 .279.157c1.011 1.852 1.257 3.525.73 4.97-.75 2.06-2.789 2.874-2.875 2.908-.936.341-1.802.512-2.591.512-.846 0-1.605-.196-2.272-.586z" fill="#a80900" class="fill-303030"></path><path d="m38.917 23.93-.091.968-.195 2.452c-.012.157-.143.276-.322.275a.3.3 0 0 1-.275-.323s.28-3.53.287-3.555l.29-13.153c.654-2.603.302-3.64-.052-4.106a.96.96 0 0 0-.272-.256.642.642 0 0 0-.36-.08c-.22.013-.429.15-.58.301-.157.16-.275.357-.361.564-.032.076-.06.154-.083.233-.415 1.393.767 3.3.78 3.318a.3.3 0 0 1 .045.15c.336 10.665-1.384 21.97-1.401 22.083a.298.298 0 0 1-.117.195l-6.005 4.492.382 3.605.105.734 6.7-6.484a.3.3 0 0 0 .088-.172l.317-2.199c4.061-4.594 1.593-8.4 1.12-9.041zM11.79 32.996a.298.298 0 0 1-.117-.195l-.012-.08a48.306 48.306 0 0 1-.077-.535 98.402 98.402 0 0 1-.217-1.646 142.536 142.536 0 0 1-.398-3.505 158.589 158.589 0 0 1-.403-4.633c-.03-.43-.394-8.495-.294-11.683a.301.301 0 0 1 .045-.15c.013-.02 1.194-1.93.78-3.32a2.683 2.683 0 0 0-.222-.558 1.087 1.087 0 0 0-.404-.424.782.782 0 0 0-.393-.107.8.8 0 0 0-.368.11c-.105.058-.2.136-.278.229-.377.446-.693 1.507-.052 4.028l.3 13.256.28 3.52c.013.165-.11.31-.3.323a.3.3 0 0 1-.298-.276l-.194-2.44-.084-.98c-.474.643-2.942 4.449 1.12 9.042l.316 2.199a.3.3 0 0 0 .088.172l6.72 6.503.085-.753.382-3.605-6.005-4.492z" fill="#a80900" class="fill-303030"></path></svg>