<svg overflow="visible" viewBox="0 0 512 512" xml:space="preserve" xmlns="http://www.w3.org/2000/svg"><ellipse cx="256.009" cy="255.494" fill="#312d2d" rx="238.138" ry="228.35" stroke="#a80900" stroke-width="30.405" class="fill-ffffff stroke-000000"></ellipse><path d="M201.632 302.877c-1.64-1.499-39.146-33.847-39.146-33.847l41.188 7.194-13.824-53.604 46.236 30.065 30.99-38.953 6.097 49.109 37.61-15.378-28.991 40.019-80.16 15.395z" stroke="#a80900" stroke-width="35.882" fill="#a80900" class="fill-000000 stroke-000000"></path><path d="M152.82 250.509c.116 1.065-.042 2.243-.576 3.585-1.91 4.777-4.459 3.668-9.523 3.657-8.917-.023-15.669.699-23.398 4.979-9.193 5.092-17.687 10.141-23.413 19.309-3.261 5.222-6.441 16.467-14.12 16.854-5.48.278-11.438-7.102-15.707-10.369-8.54-6.538-17.078-13.079-25.617-19.62l7.679-14.074-6.581-11.906 9.917-14.134-3.016-12.447 12.574-15.1.912-16.13c-.035.315 14.961-.153 16.208.235 12.235 3.806 8.052 18.462 18.499 22.899 5.386 2.286 8.98-2.175 13.176-4.782 11.227-6.974 23.259 8.399 26.934 18.24 2.397 6.421 5.227 13.776 9.286 19.351 2.307 3.166 6.348 5.548 6.766 9.453z" fill="#a80900" class="fill-000000"></path><path d="M285.544 231.065c.127-.071 28.225-15.516 28.225-15.516l-16.604-35.354 35.496-61.794 75.464-5.587 33.928 64.423-37.119 51.098-3.207 13.957.998 71.113-49.651 101.545-7.865 23.922-19.575 4.1-21.086-2.123-64.647-8.125-120.311-99.257-17.878-16.081-13.954-3.209c-1.731-3.684-5.602-8.944-5.084-13.034.642-5.081 9.026-12.529 12.395-16.101 9.721-10.314 21.328-19.186 33.963-25.63 4.913-2.507 8.654-4.584 14.42-4.585 12.46-.003 17.739 9.588 27.156 15.113 10.462 6.142 23.271 6.528 34.993 8.004 17.626 2.219 25.724 8.457 40.643 17.273 23.781 14.051 13.583-1.135 18.616-18.105 3.194-10.774 10.65-40.53 20.684-46.047z" fill="#312d2d" class="fill-ffffff"></path><path fill="none" stroke="#a80900" stroke-width="14.002" d="m107.685 208.943-8.887-1.099 11.541-3.438 11.668-15.524 17.641 7.138-.981 30.45 26.262 45.387 41.749 5.153 39.809 16.391 21.613 38.797 6.269 11.428" class="stroke-000000"></path><path fill="none" stroke="#a80900" stroke-width="14.002" d="m277.332 359.695-16.705-72.933 24.917-55.697 28.225-15.516-16.605-35.353 35.496-61.794 75.464-5.587 33.928 64.423-37.119 51.098-3.207 13.956.998 71.113-49.65 101.545-7.865 23.922-19.575 4.1-21.086-2.123-64.647-8.125-120.311-99.257-17.878-16.081-13.954-3.209-6.642-14.141-40.649-31.133 7.679-14.074-6.582-11.906 9.917-14.133-3.016-12.448 12.575-15.1.912-16.13 43.924 2.857 6.401 5.198" class="stroke-000000"></path><path fill="none" stroke="#a80900" stroke-width="11.479" d="m87.68 186.607 5 21.003h11.004l6.655-3.204M114.684 201.609l22.003 10.001" class="stroke-000000"></path><path d="M83.496 304.546s36.56-65.805 76.044-39.483" fill="none" stroke="#a80900" stroke-width="14.002" class="stroke-000000"></path><path d="M352.88 120.791c1.136 12.817 14.419 18.493 25.885 17.884 17.916-.948 19.223-10.066 21.282-24.465M324.36 138.342c10.261 17.706 25.066 27.488 46.152 28.518 16.264.793 45.325-3.493 51.47-20.841M310.101 167.957c12.034 20.056 39.565 33.911 62.519 35.101 11.986.62 21.846-.405 31.573-6.853 9.782-6.484 23.967-15.479 29.856-26.054M316.685 216.219c16.219 5.271 27.702 19.361 43.909 24.306 13.274 4.051 44.022-.558 46.033-18.821M290.36 232.672c-.445 34.83 86.587 67.024 107.494 37.293M262.938 284.224c11.621 42.497 104.23 58.109 136.013 32.906M278.295 357.717c12.325 32.177 55.192 48.716 85.556 32.907M272.811 351.136c-.131 37.012 2.822 62.788 31.809 87.749M256.355 320.422c-8.968 30.078-47.778 72.29-21.936 104.205M227.837 286.418c-1.566.497-2.375 1.269-4.204 1.284-8.424 15.39-20.527 28.594-27.717 44.663-8.018 17.925-7.566 37.861-7.566 57.16M185.06 275.45c-2.799 6.791-9.417 9.537-13.985 14.866-15.191 17.728-17.825 42.979-17.825 65.205M166.411 275.45c-13.976 3.679-25.125 11.794-34.304 22.792-7.077 8.482-15.787 18.098-15.055 29.858M96.211 311.647h-1.096M88.534 311.647c19.263-24.361 42.715-32.685 70.2-43.876" fill="none" stroke="#a80900" stroke-width="8.409" class="stroke-000000"></path><path stroke="#312d2d" stroke-width="6.322" d="m392.3 228.538-26.208-21.188-32.31 9.575 12.052-31.471-19.087-27.768 33.651 1.737 20.514-26.737 8.744 32.545 31.77 11.243-28.25 18.377z" fill="#a80900" class="fill-000000 stroke-ffffff"></path></svg>