<svg version="1.0" viewBox="0 0 48 48" xml:space="preserve" xmlns="http://www.w3.org/2000/svg" enable-background="new 0 0 48 48"><path d="M1.9 9.5c-.5 0-.9.5-.9 1v6.1l15.5 4.8c.1 0 .3-.1.4-.1-.3-.7-.7-1.4-1-2-.2-.4-.4-.8-.5-1.1-.1-.2-.1-.3-.1-.5v-.3c0-.2 0-.4.3-.7.3-.3.6-.3.7-.3h.3c.2 0 .3.1.5.1.3.1.7.3 1.2.5.6.3 1.3.6 2 1 .1-.2.2-.4.2-.7L2.4 9.5h-.5c.1 0 0 0 0 0zm44.1 0c-.1 0-.3 0-.4.1l-18.1 7.7c.1.2.2.5.2.7.7-.3 1.4-.7 2-1 .4-.2.8-.4 1.2-.5.2-.1.3-.1.5-.1h.3c.2 0 .4 0 .7.3.3.3.3.6.3.7v.3c0 .2-.1.3-.1.5-.1.3-.3.7-.5 1.1-.3.6-.6 1.3-1 2 .1 0 .3.1.4.1L47 16.6v-6.1c0-.6-.4-1-1-1zm-22 1.4c-.4 0-2.1 5.5-3.1 8.4-2.1-1-4.4-2.2-4.6-2s1 2.5 2 4.6c-3 1-8.4 2.7-8.4 3.1s5.5 2.1 8.4 3.1c-1 2.1-2.2 4.4-2 4.6.2.2 2.5-1 4.6-2 1 3 2.7 8.4 3.1 8.4.4 0 2.1-5.5 3.1-8.4 2.1 1 4.4 2.2 4.6 2 .2-.2-1-2.5-2-4.6 3-1 8.4-2.7 8.4-3.1s-5.5-2.1-8.4-3.1c1-2.1 2.2-4.4 2-4.6s-2.5 1-4.6 2c-1-3-2.7-8.4-3.1-8.4zM1 17.7V23c0 .4.3.8.7.9l15 5.1c.1-.1.1-.2.2-.3-1.3-.4-2.9-.9-4.3-1.4-.9-.3-1.7-.6-2.3-.8-.3-.1-.6-.2-.8-.4-.1-.1-.2-.1-.3-.2-.1-.1-.4-.3-.4-.8 0-.6.3-.7.4-.8.2-.3.3-.3.4-.4.2-.1.5-.2.8-.4.6-.3 1.4-.5 2.3-.8.7-.3 1.5-.5 2.2-.7L1 17.7zm46 0L33.1 22c.7.2 1.5.5 2.2.7.9.3 1.7.6 2.3.8.3.1.5.2.8.4.1.1.2.1.3.2.1.1.4.3.4.8 0 .6-.3.7-.4.8-.1.1-.2.2-.3.2-.2.1-.5.2-.8.4-.6.3-1.4.5-2.3.8-1.4.5-2.9 1-4.3 1.4.1.1.1.2.2.3l15.1-5.2c.4-.1.7-.5.7-.9v-5z" fill="#a80900" class="fill-000000"></path></svg>