<svg viewBox="0 0 24 24" xml:space="preserve" xmlns="http://www.w3.org/2000/svg"><g fill="#a80900" class="fill-303c42"><path d="M12 4c-4.411 0-8 3.589-8 8s3.589 8 8 8 8-3.589 8-8-3.589-8-8-8zm0 14c-3.309 0-6-2.691-6-6s2.691-6 6-6 6 2.691 6 6-2.691 6-6 6z"></path><path d="M12 0C5.383 0 0 5.383 0 12s5.383 12 12 12 12-5.383 12-12S18.617 0 12 0zm0 21c-4.962 0-9-4.038-9-9s4.038-9 9-9 9 4.038 9 9-4.038 9-9 9z"></path><path d="M17.474 10.16A.5.5 0 0 0 17 9.82h-3.451l-1.071-3.467c-.13-.42-.827-.42-.956 0l-1.07 3.467H7a.5.5 0 0 0-.304.897l2.814 2.149-1.078 3.487a.5.5 0 0 0 .781.544L12 14.77l2.787 2.128a.5.5 0 0 0 .78-.544l-1.077-3.487 2.814-2.149a.5.5 0 0 0 .17-.557z"></path></g></svg>