<svg viewBox="0 0 64 64" xml:space="preserve" xmlns="http://www.w3.org/2000/svg" enable-background="new 0 0 64 64"><path d="M61.1 54.4 40.7 33.9c-.4-.4-1.1-.4-1.5 0l-.4.4c-3.3-2.1-7-8.4-8.3-10.8-.2-.3-.4-.5-.8-.6-4.4-.9-4.8-2.5-4.8-2.5 0-.5-.3-.9-.8-1.1l-2.3-.7v-.2c0-.5-.2-.9-.7-1.1l-2.1-.9v-.5c0-.4-.2-.8-.5-1C13.5 11.9 4.2.6 4.1.5 3.9 0 3.4-.1 2.9.1c-.4.1-.7.6-.7 1C2.9 18 9.3 22.9 15 27.2l.2.2c5.2 4 8.2 10.7 8.2 10.7.2.4.5.6.9.6l.9.1 1 1.6c.2.3.4.4.7.5.3.1.6 0 .8-.1.8-.5 2.9-1.5 3.9-1.1.3.1.5.5.7 1l-.5.5c-.4.4-.4 1.1 0 1.5l20.5 20.5c.4.4 1 .6 1.5.6.6 0 1.1-.2 1.5-.6l5.9-5.9c.4-.4.6-1 .6-1.5 0-.4-.2-1-.7-1.4zM32.5 37.8c-1.7-.8-3.8 0-5 .6l-.7-1.2c-.2-.3-.5-.5-.8-.5l-.8-.1c-.9-1.8-3.8-7.4-8.7-11l-.2-.2c-4.9-3.6-10.4-7.8-11.7-21 3 3.5 8.4 9.5 12.2 12v.6c0 .5.2.9.7 1.1l2.2.9v.3c0 .5.3 1 .8 1.1l2.5.8c.4 1 1.7 2.7 5.8 3.7 1 1.8 4.6 8.2 8.4 11l-3.3 3.3c-.4-.8-1-1.2-1.4-1.4zm21.2 24L34 42.1l5.9-5.9 19.7 19.7-5.9 5.9z" fill="#a80900" class="fill-000000"></path><path d="M53.8 58.9c.7 0 1.5-.3 2.1-.9 1.1-1.1 1.1-3 0-4.1-1.1-1.1-3-1.1-4.1 0-1.1 1.1-1.1 3 0 4.1.5.6 1.2.9 2 .9zm-.5-3.4c.1-.1.3-.2.5-.2s.4.1.5.2c.3.3.3.7 0 1-.3.3-.7.3-1 0-.3-.3-.3-.7 0-1z" fill="#a80900" class="fill-000000"></path></svg>