<svg data-name="Layer 1" viewBox="0 0 512 512" xmlns="http://www.w3.org/2000/svg"><path d="M412.76 225.68c-28.6-58.53-104.87-76.2-178.63-93.27-62.92-14.57-122.36-28.33-136.46-66.58a6.22 6.22 0 0 0-12 1.37c-.35 2.72-8.1 67 22.14 104.64A67.3 67.3 0 0 0 140.19 194c2.26 14.49 14.17 62.4 73.74 76.74 1 .24 1.95.43 2.93.66 1.1 15.51 9.84 61 73.61 79.77 62.2 18.31 105.71 95.12 106.14 95.89a6.11 6.11 0 0 0 2.05 2.09 6 6 0 0 0 .8.4 5.36 5.36 0 0 0 .93.46 6.19 6.19 0 0 0 4.66-.57c.17-.1.27-.26.43-.37a5.59 5.59 0 0 0 .52-.45 6.06 6.06 0 0 0 2-3c1.67-6 39.69-148.44 4.76-219.94ZM294 339.24c-52.71-15.51-62.67-49.84-64.47-65 4.41 1 8.85 2 13.22 3 55.93 12.29 104.24 22.9 125 66.92a6.21 6.21 0 0 0 5.63 3.56 6.15 6.15 0 0 0 2.65-.59 6.23 6.23 0 0 0 3-8.28c-23.38-49.55-76.92-61.3-133.6-73.75-9.42-2.07-19-4.17-28.54-6.48-47.53-11.44-60.21-46-63.57-61.7 1.49.22 2.85.66 4.38.8l15.8 1.39c75 6.49 152.5 13.2 194.56 83.51a6.22 6.22 0 0 0 10.68-6.39c-45.34-75.76-126.08-82.75-204.17-89.51l-15.74-1.39c-17.29-1.57-31.17-8.72-41.26-21.26-17.19-21.37-20.42-54-20.49-75 25.21 30.19 78.44 42.52 134.28 55.45 70.93 16.42 144.27 33.41 170.27 86.62 26.71 54.7 6.59 159.07-2.09 197-15.79-23.8-53.94-73.72-105.54-88.9Z" fill="#a80900" class="fill-000000"></path></svg>