<svg overflow="visible" viewBox="0 0 512 512" xml:space="preserve" xmlns="http://www.w3.org/2000/svg"><g stroke="#a80900" class="stroke-000000"><path d="M490.249 291.829c0 109.625-88.885 198.511-198.511 198.511h-71.909c-109.633 0-198.512-88.886-198.512-198.511v-71.906c0-109.636 88.878-198.515 198.512-198.515h71.909c109.626 0 198.511 88.879 198.511 198.515v71.906z" fill="#312d2d" stroke-width="18.54" class="fill-ffffff"></path><path d="M390.83 376.003c0 63.142-51.196 114.337-114.34 114.337h-41.417c-63.146 0-114.336-51.195-114.336-114.337" fill="none" stroke-width="18.54"></path><circle cx="133.697" cy="226.382" r="12.618" stroke-width="18.54" fill="#a80900" class="fill-000000"></circle><circle cx="366.567" cy="226.382" r="50.092" stroke-width="73.597" fill="#a80900" class="fill-000000"></circle><path d="M381.482 343.773c0-12.672-55.812-22.944-124.657-22.944-68.846 0-124.657 10.272-124.657 22.944h249.314z" stroke-width="18.54" fill="#a80900" class="fill-000000"></path></g></svg>