<svg overflow="visible" viewBox="0 0 512 512" xml:space="preserve" xmlns="http://www.w3.org/2000/svg"><path d="M413.372 290.686c0 75.188-60.963 136.151-136.15 136.151h-49.317c-75.193 0-136.151-60.963-136.151-136.151v-49.314c0-75.195 60.958-136.154 136.151-136.154h49.317c75.188 0 136.15 60.959 136.15 136.154v49.314z" fill="#4a734c" stroke="#a80900" stroke-width="12.716" class="fill-ffffff stroke-000000"></path><path fill="none" stroke="#a80900" stroke-linecap="round" stroke-linejoin="round" stroke-width="4.319" d="m316.026 231.304 6.055 7.249M329.604 224.992l.99 12.141M344.198 229.592l-6.052 7.16M154.484 231.304l6.056 7.249M168.062 224.992l.991 12.141M182.657 229.592l-6.052 7.16" class="stroke-000000"></path><path d="M455.3 323.5c4.995 2.795 10.646 3.941 16.209 5.014 3.027.579 6.01 1.476 9.08 1.802 2.965.313 5.867-.279 8.827-.128-.932 5.549-9.515 9.708-14.054 11.857-5.764 2.73-12.141 4.563-18.54 4.771-3.351.109-6.542-1.07-9.887-.854 2.02 4.89 6.262 8.501 10.822 10.964 4.629 2.499 9.62 2.745 14.352 4.656.897.362-6.15 6.995-6.676 7.34-5.816 3.835-13.38 5.195-20.237 5.347-28.982.635-50.441-23.053-63.156-46.626-16.554-30.686-7.773-68.159-23.421-98.999-5.265-10.374-16.481-13.729-25.534-19.821-16.585-11.159-26.925-29.172-39.987-43.847-16.302-18.315-42.247-28.641-65.059-14.84-2.428 1.468-19.007 17.526-18.477 17.906-14.21-10.182-36.921-13.429-52.444-3.759-18.451 11.493-19.542 23.831-21.327 43.413-.692 7.598-.26 14.448-1.728 21.813-2.373 11.91-5.675 26.618-16.263 33.621-5.201 25.111-5.609 51.158-10.688 76.691-3.043 15.295-9.943 29.815-23.579 38.254-10.671 6.604-24.541 12.85-37.381 9.804-2.534-.603-4.756-2.146-7.317-2.778 11.896-10.02 22.078-17.449 28.619-32.664 1.406-3.271 1.456-7.369.346-10.312-9.804 1.896-19.12 3.233-28.103 1.895-7.325-1.094-14.429-3.97-21.394-9.779 15.406-8.022 28.194-12.281 36.837-28.488 9.343-17.52 10.436-39.226 10.926-58.86 1.174-47.043 18.295-98.957 57.42-128.007 10.527-7.816 22.104-14.148 34.221-19.128 13.725-5.642 25.046-6.098 39.418-1.877 1.177.334 8.894-6.203 10.344-7.033 4.441-2.544 9.154-4.542 14.008-6.148 12.61-4.17 26.087-5.833 39.323-6.081 27.839-.519 56.849 5.447 82.375 16.54 13.113 5.697 26.104 13.441 36.981 22.785 21.571 18.528 37.474 47.944 44.033 75.484 6.026 25.306.178 51.929 11.608 76.14 4.899 10.377 13.403 17.934 24.422 21.216 11.489 3.421 21.789 1.34 33.135.344-2.455 4.231-4.851 9.99-8.204 13.531-4.887 5.161-11.025 8.045-17.996 9.119-6.834 1.054-14.357.309-20.974 2.41 1.445 3.203 6.163 5.658 9.12 7.312z" fill="#4a734c" stroke="#a80900" stroke-linecap="round" stroke-linejoin="round" stroke-width="12.716" class="fill-ffffff stroke-000000"></path><ellipse cx="169.187" cy="251.197" rx="12.958" ry="20.445" fill="#a80900" class="fill-000000"></ellipse><ellipse cx="330.272" cy="251.197" rx="12.958" ry="20.445" fill="#a80900" class="fill-000000"></ellipse></svg>