<svg viewBox="0 0 48 48" xml:space="preserve" xmlns="http://www.w3.org/2000/svg" enable-background="new 0 0 48 48"><ellipse cx="31.673" cy="30.291" rx=".326" ry=".422" fill="#a80900" class="fill-303030"></ellipse><path d="M30.254 28.91c0-.17-.03-.329-.081-.476-.264.063-1.096.352-1.444 1.52l-.02.096a.91.91 0 0 0 .48.146c.589 0 1.065-.576 1.065-1.285zM19.66 30.196a.91.91 0 0 0 .48-.146l-.02-.097c-.347-1.167-1.18-1.456-1.443-1.52a1.47 1.47 0 0 0-.082.478c0 .71.477 1.285 1.065 1.285z" fill="#a80900" class="fill-303030"></path><ellipse cx="17.177" cy="30.291" rx=".326" ry=".422" fill="#a80900" class="fill-303030"></ellipse><path d="M31.607 31.653s-1.334.63-2.196.099c.027.067.059.134.092.202.397.398 1.215.916 2.104-.301zM17.242 31.653c.89 1.217 1.707.699 2.105.301.033-.068.064-.135.091-.202-.861.53-2.196-.1-2.196-.1z" fill="#a80900" class="fill-303030"></path><path d="m39.374 17.784-.2-.353a.3.3 0 0 0-.262-.152l-.482.004-.781-.126a.293.293 0 0 0-.274.098l-1.153 1.312-.414.547-.57 1.06-.132 1.49a.3.3 0 0 1-.298.274l-.027-.001a.3.3 0 0 1-.272-.325l.136-1.551a.292.292 0 0 1 .034-.116l.85-1.578 1.019-.924.625-1.151h1.706a.3.3 0 0 0 0-.6h-1.253l1.556-1.517a.3.3 0 1 0-.42-.43l-1.859 1.813a.299.299 0 0 0-.054.072l-.549 1.01c.04-.28-.095-.555-.232-.73l-.026-.153c.13-.429.31-.924.384-1.016.253-.252.453-.974.18-1.488-.196-.364-.667-1.432-.672-1.442a.3.3 0 0 0-.493-.085l-.806.857a.304.304 0 0 0-.055.081s-.534 1.171-.636 1.425c-.03.074-.258.65-.312.926 0 0-.114.646-.636 1.66L32.6 19.82l.708 3.961a.3.3 0 0 1-.591.106l-.715-4.006a.308.308 0 0 1-.003-.09l.394-3.141s.09-.483.556-.823a2.37 2.37 0 0 1 .073-.145c.47-.862.75-2.22.762-2.278a.3.3 0 0 0-.106-.294l-.804-.647-.068-1.153a.296.296 0 0 0-.12-.216l-.452.705-1.126 1.998-.67 2.696-.237 5.036a.3.3 0 0 1-.3.286h-.015a.3.3 0 0 1-.285-.315l.245-5.094.69-2.793a.295.295 0 0 1 .03-.075l1.164-2.067.63-.941.043-1.437a.296.296 0 0 0-.028-.136l-.445-.958a.3.3 0 0 0-.161-.153c-.158-.062-.964-.373-1.355-.373-.41 0-1.013.325-1.13.39a.3.3 0 0 0-.132.152c-.092.234-.247.654-.245.799-.04.186-.644 1.713-1.208 3.113l-.32 1.67-.503.966-.129.004-.285.61-.25.463c-.055.281-.14.484-.24.627l-.488 2.197-.183 5.38a.3.3 0 0 1-.3.29h-.01a.3.3 0 0 1-.29-.31l.19-5.435.422-1.915.126-.573c-.085-.036-.163-.16-.197-.588-.025-.32-.048-.72-.067-1.113a.295.295 0 0 0 .1-.117l1.347-3.018a.302.302 0 0 0 .012-.213l-.942-2.967.367-1.962a.3.3 0 0 0-.59-.11l-.38 2.036a.302.302 0 0 0 .008.146l.931 2.93-.907 2.032-.008-.252a.304.304 0 0 0-.026-.112s-.403-.908-.439-1.007c-.07-.213-.208-.476-.466-.51-.098-.018-.288-.002-.446.236 0 0-.416 1.05-.447 1.066l.032.621.141 2.435a.287.287 0 0 1-.007.087l-.406 1.709a.3.3 0 0 1-.584-.14l.396-1.665-.159-2.744v-.001c-.018-.217-.035-2.043.036-2.292a2.956 2.956 0 0 0-.109-.377c-.053-.16-.078-.242-.078-.322 0-.08.045-.76.066-1.062l.1-.719-.57-.519-1.696-1.01-.958-.328a.295.295 0 0 0-.3.064l-.354.328a.3.3 0 0 0-.08.315l.523 1.572-.812.878a.3.3 0 0 0-.079.231l.378 3.959a.3.3 0 0 0 .042.126l.4.666-.15 1.081.447 1.141.51 2.589a.3.3 0 0 1-.59.116l-.47-2.392-.19-.607a.726.726 0 0 0-.407-.03l-1.397-2.42-.303-3.797a.3.3 0 0 0-.132-.226l-.235-.156.76-1.445a.3.3 0 0 0-.53-.28l-.732 1.391-1.582-1.05a.3.3 0 1 0-.332.5l2.197 1.459.297 3.719a.295.295 0 0 0 .039.126l1.48 2.564c-.05.11-.095.244-.145.446-.037.081-.266.248-.527.391l.35.492 1.285 2.202a.307.307 0 0 1 .04.128l.178 2.265a.3.3 0 0 1-.276.323h-.024a.3.3 0 0 1-.3-.276l-.171-2.197-1.393-2.388c-.973-1.055-1.002-1.27-1.012-1.352-.037-.081-.368-.47-.65-.76a.306.306 0 0 1-.052-.075l-1.078-2.156-.287-.724-.19-.061a.298.298 0 0 0-.198.005c-1.388.52-1.419.89-1.429 1.012-.027.331.024.729.027.745a.298.298 0 0 0 .045.123l.414.644.222 2.38.779 1.876 1.178 2.923.505 3.601a.3.3 0 0 1-.595.082l-.486-3.53-1.175-2.892-.707-1.697c-.002-.005-.456-1.162-.512-1.28a93.19 93.19 0 0 1-.604-1.453l-.118-.59-.517.08a.3.3 0 0 0-.255.296v.873c0 .032.005.063.015.093l1.11 3.407.144.29-.971-.47-.605-.73a.298.298 0 0 0-.213-.109l-.79-.047a.294.294 0 0 0-.317.281.3.3 0 0 0 .281.317l.66.04.563.68c.027.033.062.06.1.079l1.236.6a.532.532 0 0 0-.054.212c-.034.179-.137.722.32.91.17.182.484 1.38.634 1.955.143.547.208.794.281.914.099.439.388 2.973.56 4.574l-.237.827a.314.314 0 0 0-.01.082c0 .584.014.97.04 1.246l.62.165c.156.065.362.154.362.154.015.006.023.02.036.028.008.005.017 0 .024.006l1.06.783a.3.3 0 1 1-.356.482l-.512-.378-.651-.44c.144 1.455.374 3.165.676 3.462.123.122.198.726.188 1.192a.3.3 0 0 0 .09.222l.828.804c.09.279.323.902.652 1.121a18.55 18.55 0 0 1 1.431 1.086c.405.354 2.099 1.183 2.413 1.183.092.007.445.125.808.302l-.23-.755-.22-.893-.009-1.347a.3.3 0 0 1 .6 0v1.275l.325 1.287.195.827c.503.318 2 .787 3.248.787.45 0 .863-.065 1.186-.218l.236-.782.575-1.74a.3.3 0 1 1 .57.188l-.391 1.183-.235.78c.848-.42 1.753-.843 2.145-.843.548 0 1.122-.434 1.503-.72.09-.068.163-.124.215-.155.083-.05.402-.263.804-.532.67-.448 1.918-1.283 2.087-1.357.448-.15 1.036-1.815 1.036-2.352 0-.447.117-.99.156-1.16l.58-.822c.55-1.39.55-1.485.55-1.548 0-.033 0-.13-.191-.927l.996-3.52.208-1.62 1.387-3.53a.302.302 0 0 0 .02-.11V21.1l1.41-3.042a.3.3 0 0 0-.012-.274zm-10.838 6.585a.326.326 0 1 1 0 .651.326.326 0 0 1 0-.651zm-3.831 1.18a.304.304 0 0 1 .334-.26.3.3 0 0 1 .262.333l-.324 2.651c.02.29.172 3.284.164 3.568a.3.3 0 0 1-.3.29h-.009a.3.3 0 0 1-.29-.308c.005-.196-.094-2.243-.162-3.57l.325-2.703zm-2.945-3.591a.462.462 0 1 1 0 .923.462.462 0 0 1 0-.923zm-3.287 1.875a.3.3 0 0 1 .6 0v1.217a.3.3 0 0 1-.6 0v-1.217zm-1.548 10.241a.3.3 0 0 1-.014-.6c.833-.04 1.416-.319 1.824-.688-.154.031-.312.048-.475.036-1.13-.077-1.974-1.194-1.885-2.493.09-1.3 1.078-2.29 2.208-2.212l.034.002c.011.002.064.006.145.022a.289.289 0 0 1 .044.01c.373.084 1.195.406 1.597 1.678l.006.017c.004.014.077.514.06.764a2.587 2.587 0 0 1-.472 1.33c-.365.933-1.19 2.045-3.058 2.134h-.014zm7.523 6.026a.461.461 0 1 1 0-.923.461.461 0 0 1 0 .923zm5.391-3.336c-.716.218-2.477.495-2.922.516a3.016 3.016 0 0 1-.128.002c-.396 0-1.37-.04-2.577-.09-.514-.022-.958-.04-1.174-.047-.17-.004-.388 0-.632.004-.71.015-1.594.033-2.181-.153-.736-.233-3.097-.949-3.097-.949a.3.3 0 0 1 .174-.574s2.366.718 3.103.95c.494.156 1.325.139 1.99.126.252-.004.481-.01.66-.004.218.007.665.025 1.183.047 1.008.043 2.388.105 2.65.089.4-.019 2.124-.292 2.776-.491.739-.226 1.585-.605 1.745-.751a.3.3 0 0 1 .564.192c-.106.49-1.796 1.03-2.134 1.133zm2.1-3.29a.3.3 0 0 1-.014.6h-.015c-1.868-.09-2.692-1.202-3.057-2.134a2.586 2.586 0 0 1-.472-1.33c-.017-.25.056-.75.06-.764.001-.006.005-.018.006-.017.402-1.272 1.224-1.594 1.596-1.678l.044-.01c.082-.016.134-.02.145-.022l.034-.002c1.13-.078 2.12.912 2.209 2.212.089 1.3-.755 2.416-1.885 2.493a1.792 1.792 0 0 1-.476-.036c.409.37.992.649 1.825.689zm1.22-6.85h-.005a.3.3 0 0 1-.3-.294l-.019-1.068a.3.3 0 0 1 .295-.305c.19-.018.302.13.305.295l.019 1.067a.3.3 0 0 1-.295.305z" fill="#a80900" class="fill-303030"></path><path d="m13.544 31.88.651.44c-.244-.18-.651-.44-.651-.44z" fill="#a80900" class="fill-303030"></path></svg>