<svg overflow="visible" viewBox="0 0 512 512" xml:space="preserve" xmlns="http://www.w3.org/2000/svg"><g stroke="#a80900" class="stroke-000000"><ellipse cx="255.731" cy="255.643" fill="#312d2d" rx="238.093" ry="228.309" stroke-width="30.399" class="fill-ffffff"></ellipse><path d="m267.133 470.456 2.446-.349s-2.446-32.161 35.038-60.174c37.477-28.003 51.738-53.938 52.151-54.988 3.644-9.229 12.98-48.545 25.229-47.931 1.077-9.112-1.509-18.078-1.345-27.179-3.618 4.297-9.941 6.123-13.301 10.728-2.772 3.801.374 16.109-.87 21.164-1.331 5.418-4.58 11.528-6.604 16.851-5.104 13.451-9.82 30.834-19.403 41.932-8.966 10.372-36.263 34.582-36.263 34.582s-25.261 18.677-32.189 37.698c-6.926 19.018-4.889 27.666-4.889 27.666zM266.326 42.661l2.444.347s-2.444 32.161 35.039 60.174c37.487 28.012 51.746 53.949 52.152 54.985.409 1.04 21.596 53.261 21.596 53.261l-2.444 8.645-8.15-13.833s-18.335-53.258-27.299-63.633c-8.964-10.374-36.264-34.584-36.264-34.584s-25.259-18.676-32.187-37.695c-6.925-19.023-4.887-27.667-4.887-27.667z" stroke-linecap="round" stroke-linejoin="round" stroke-width="7.122" fill="#a80900" class="fill-000000"></path><path stroke-linecap="round" stroke-linejoin="round" stroke-width="7.122" d="m355.556 177.189-2.853 2.075-3.666 22.133 1.221 8.992 20.371 19.714-.813 10.373-3.259 4.843-.818 2.42 2.854 1.383-6.929 30.086-6.108 5.534-.817 5.188-2.852 6.917-3.259 6.225 4.075 27.668 5.296-11.413-2.037-11.759 3.261-5.534h10.593l4.888-5.187.409-6.917 1.63-14.525 8.961-33.546-8.961-19.365-9.78-16.254-9.779-3.763 2.445-13.834z" fill="#a80900" class="fill-000000"></path><path d="M397.997 243.796c0 .723-.917 1.311-2.053 1.311H92.799c-1.132 0-2.053-.588-2.053-1.311 0-.725.921-1.316 2.053-1.316h303.145c1.136 0 2.053.591 2.053 1.316z" stroke-width=".757" fill="#a80900" class="fill-000000"></path><path stroke-width=".702" d="m98.243 245.219.544 3.69 36.666-3.69M98.243 242.295l.544-3.688 36.666 3.688" fill="#a80900" class="fill-000000"></path><path d="M390.786 250.244c0 2.736-2.618 4.955-5.841 4.955h-20.371c-3.227 0-5.84-2.219-5.84-4.955 0-2.739 2.613-4.957 5.84-4.957h20.371c3.223 0 5.841 2.218 5.841 4.957zM371.448 280.938c0 4.585-4.018 8.302-8.968 8.302s-8.962-3.717-8.962-8.302c0-4.582 4.012-8.301 8.962-8.301s8.968 3.719 8.968 8.301z" stroke-width=".751" fill="#a80900" class="fill-000000"></path><path d="M404.651 243.58c0 1.502-1.438 2.721-3.205 2.721h-3.027c-1.768 0-3.205-1.218-3.205-2.721 0-1.502 1.438-2.718 3.205-2.718h3.027c1.767 0 3.205 1.216 3.205 2.718z" stroke-width="1.228" fill="#a80900" class="fill-000000"></path><path d="M407.323 243.429c0 .25-.238.452-.534.452h-3.027c-.295 0-.535-.202-.535-.452 0-.251.24-.455.535-.455h3.027c.296 0 .534.204.534.455z" stroke-width="1.228" fill="#a80900" class="fill-000000"></path><path fill="none" stroke-width="2.849" d="M268.771 43.008 91.067 241.747l-.325.361-.626.702-.572.64"></path><path d="m91.067 241.747-.325.361s.304-.837-.625.702c-.93 1.54 181.243 228.742 181.243 228.742" fill="none" stroke-width="2.849"></path></g></svg>