<svg overflow="visible" viewBox="0 0 512 512" xml:space="preserve" xmlns="http://www.w3.org/2000/svg"><g stroke="#a80900" class="stroke-000000 stroke-312d2d"><path d="M490.427 291.964c0 109.576-88.845 198.422-198.422 198.422h-71.877c-109.584 0-198.423-88.846-198.423-198.422V220.09c0-109.587 88.839-198.427 198.423-198.427h71.877c109.577 0 198.422 88.84 198.422 198.427v71.874z" fill="#78866b" stroke-width="18.532" class="fill-ffffff fill-a80900"></path><path d="M352.853 211.343v12.865c0 4.339 4.967 7.856 11.088 7.856h15.088c6.126 0 11.087-3.518 11.087-7.856v-20.04l-37.263 7.175zM152.116 211.343v12.865c0 4.339-4.964 7.856-11.087 7.856h-15.09c-6.123 0-11.086-3.518-11.086-7.856v-20.04l37.263 7.175z" stroke-width="15.601" fill="#a80900" class="fill-000000 fill-312d2d"></path><path d="M423.54 116.279c7.228 1.748 28.739 7.316 23.592-6.788-2.257-6.188-9.587-7.699-14.201-11.535-4.621-3.84-7.796-9.114-11.776-13.553-12.274-13.691-28.27-22.427-44.988-29.297-9.525-3.915-18.988-7.319-29.207-9.156-17.919-3.22-34.676-10.167-52.93-12.06-33.909-3.52-68.585-1.609-102.413 2.487-13.089 1.585-26.008 4.699-38.856 7.661-12.614 2.908-21.927 9.468-32.849 15.864-11.556 6.767-21.056 16.456-32.418 23.503-11.97 7.428-23.119 11.033-26.482 26.909-2.897 13.68 7.665 14.877 19.133 13.799 30.685-2.884 60.029-23.249 85.35-39.016-2.002 1.686-7.795 14.118-4.931 17.457 4.918 5.732 19.706-7.458 23.466-10.37.632 6.434-3.871 18.362-.743 24.127 3.853 7.1 14.783 2.917 20.526.731 12.81-4.871 24.806-11.118 35.535-19.89 6.72-5.494 10.082-13.495 16.479-18.839.728 12.36-2.206 37.497 17.107 35.918 17.374-1.421 26.189-22.549 26.007-37.451 8.091 18.263 23.727 36.402 45.691 36.63 18.876.198 29.38-10.358 29.206-28.982 13.689 14.144 29.621 26.996 49.702 31.851z" stroke-width="18.532" fill="#a80900" class="fill-000000 fill-312d2d"></path><path stroke-linecap="round" stroke-linejoin="round" stroke-width="13.486" d="m59.587 151.427 1.114 12.239-10.571 6.674" fill="#a80900" class="fill-000000 fill-312d2d"></path><path fill="none" stroke-linecap="round" stroke-linejoin="round" stroke-width="12.362" d="m81.26 147.81-1.021 15.809 13.768 2.549M53.771 188.673l17.25-7.991 19.111 1.911"></path><path stroke-linecap="round" stroke-linejoin="round" stroke-width="13.486" d="m435.682 254.624 1.115 12.237-10.572 6.677" fill="#a80900" class="fill-000000 fill-312d2d"></path><path fill="none" stroke-linecap="round" stroke-linejoin="round" stroke-width="12.362" d="m457.355 251.007-1.019 15.809 13.768 2.548M429.867 291.869l17.248-7.989 19.112 1.91"></path><path d="M346.236 472.971c0 6.122-4.965 11.088-11.088 11.088H179.577c-6.123 0-11.087-4.966-11.087-11.088V281.85c0-6.123 4.965-11.086 11.087-11.086h155.571c6.123 0 11.088 4.963 11.088 11.086v191.121z" fill="#78866b" stroke-width="15.601" class="fill-ffffff fill-a80900"></path><path fill="none" stroke-width="15.601" d="M167.345 310.517h177.746M168.492 441.245h178.893"></path><path d="M346.236 425.2c0 3.305-4.965 5.983-11.088 5.983H179.577c-6.123 0-11.087-2.679-11.087-5.983V322.066c0-3.306 4.965-5.981 11.087-5.981h155.571c6.123 0 11.088 2.676 11.088 5.981V425.2z" stroke-width="13.613" fill="#a80900" class="fill-000000 fill-312d2d"></path></g></svg>