<svg overflow="visible" viewBox="0 0 512 512" xml:space="preserve" xmlns="http://www.w3.org/2000/svg"><ellipse cx="255.958" cy="255.758" fill="#312d2d" rx="237.286" ry="227.534" stroke="#a80900" stroke-width="32.39" class="fill-ffffff stroke-000000 stroke-a80900"></ellipse><path d="M376.884 55.553 336.697 163.43l-53.128-19.791L323.756 35.76zM193.784 35.755l40.188 107.876-53.128 19.792-40.188-107.876z" fill="#a80900" class="fill-000000 fill-a80900"></path><path fill="#312d2d" stroke="#a80900" stroke-linecap="round" stroke-linejoin="round" stroke-width="25.624" d="M72.96 142.165h370.399L259.238 464.376z" class="fill-ffffff stroke-000000 stroke-a80900"></path><path stroke="#a80900" stroke-linecap="round" stroke-linejoin="round" stroke-width="12.465" d="M163.079 193.23h190.159l-94.523 165.422z" fill="#a80900" class="fill-000000 stroke-000000 fill-a80900 stroke-a80900"></path><path fill="#312d2d" stroke="#a80900" stroke-linecap="round" stroke-linejoin="round" stroke-width="9.263" d="m195.707 213.368.959.016 29.249.463v9.591h66.647l-.479-10.07 29.247.96-14.863 26.851-8.153-6.713-31.164 58.497 7.194 5.272-14.867 23.496-15.822-24.454 7.673-4.796-31.646-57.536-7.674 5.273z" class="fill-ffffff stroke-000000 stroke-a80900"></path><path d="M146.966 286.507 34.439 310.763l-11.945-55.419L135.02 231.09zM215.805 370.275l-77.198 85.395-42.056-38.02 77.198-85.394zM388.453 231.053 500.98 255.31l-11.946 55.418-112.528-24.255zM349.753 332.262l77.197 85.394-42.056 38.02-77.198-85.394zM254.414 360.859h8.824v87.334h-8.824z" fill="#a80900" class="fill-000000 fill-a80900"></path><path d="M267.649 414.23a8.381 8.381 0 0 1-8.381 8.381 8.38 8.38 0 0 1-8.381-8.381v-14.112a8.381 8.381 0 1 1 16.762 0v14.112zM424.732 149.435l4.156 7.781-77.039 41.144-4.155-7.781z" fill="#a80900" class="fill-000000 fill-a80900"></path><path d="M400.987 177.105a8.379 8.379 0 0 0 3.443-11.34 8.378 8.378 0 0 0-11.339-3.446l-12.451 6.647a8.382 8.382 0 0 0 7.896 14.786l12.451-6.647zM167.753 190.567l-4.154 7.78-77.039-41.134 4.155-7.781z" fill="#a80900" class="fill-000000 fill-a80900"></path><path d="M114.435 177.105c-4.082-2.181-5.625-7.259-3.445-11.34a8.379 8.379 0 0 1 11.34-3.446l12.45 6.647a8.383 8.383 0 0 1 3.447 11.341 8.383 8.383 0 0 1-11.342 3.445l-12.45-6.647z" fill="#a80900" class="fill-000000 fill-a80900"></path></svg>