<svg viewBox="0 0 32 32" xml:space="preserve" xmlns="http://www.w3.org/2000/svg"><path d="m4.008 19.618.309.021-.129.365s.541 3.839.747 4.251c.206.412.361.747.85.696.49-.052.848-.539.593-.824-.731-.813-.618-1.932-.618-2.319 0-.386.052-.618.103-.824s.283-.361.696-.721 4.406-3.53 4.689-3.813c.283-.283.258-.386.541-.026s1.21 1.676 1.418 1.972c.816 1.163.816 1.788.363 4.108-.039.199.035.767.087 1.134 0 .185.543.335 1.213.335s1.213-.15 1.213-.335c0-.036-.021-.071-.06-.104-.262-.392-1.439-.506-.392-3.662.243-.734.219-1.016.31-1.309.359-1.147 2.236-1.476 3.266-1.45.774 1.573 2.381 4.991 2.529 6.525h2.717c1.243-.304 1.959-2.01 1.857-2.866-.102-.857-.74-3.139-.878-3.675.015-.051.035-.11.062-.182.206-.567 1.185-1.752 1.262-2.319.077-.567 1.365-.206 1.649-.155.283.052.386-.103.438.335.052.438-.155.567.026.773s.567.309.721.283c.155-.026.228.062.434-.118s.336-.414.336-.414-.408-.088-.486-.32c-.077-.232.283-.644.438-.618s.259.792.259.792l.617-.173s.781-.407.747-.927c-.01-.15-.076-.352-.209-.696-.05-.129.351-.602.214-.901-.082-.18-.092-.594-.371-1.057-.279-.463-.459-.566-.511-.721s.245-.399.065-.657a2.417 2.417 0 0 0-.603-.627c-.326-.249-.544-.236-.699-.159-.155.077-.49.232-.644.155s-1.211-.515-1.726-.644c-.515-.129-1.108-.129-1.417-.129-.309 0-.638.006-.819-.046s-.548-.664-1.758-.778c-3.539-.335-2.25 1.365-6.802.85-4.282-.486-8.055 1.112-8.704 2.073-1.426 2.112.724 5.422-3.849 7.097-2.227.816-4.052-2.526-2.58-3.615.378-.28.854.582.94.634.176.107 1.108-.393.309-1.295s-1.812-.589-2.293.026c-.781.997-1.034 5.376 3.53 6.054zM22 17.948c.238.35 1.965 1.558 2.198 1.766.687.802.733 1.762.67 1.93-.139.367-.43.57-1.177.772-.05.014-.1.029-.149.047-.306-.512-.643-1.046-.727-1.273-.18-.49-.309-.824-.386-1.365-.077-.541-.244-.929-.361-1.443a4.582 4.582 0 0 1-.068-.434z" fill="#a80900" class="fill-404041"></path></svg>