<svg viewBox="0 0 256 256" xml:space="preserve" xmlns="http://www.w3.org/2000/svg" enable-background="new 0 0 256 256"><path d="M26.5 65c-3.3-8.6-5.9-17.6-7.8-26.7-.7-3.5-1.4-6.9-2-10.4-.4-2.2-.7-4.5-1.1-6.8-.2-1.1-.3-2.3-.5-3.4V17c0-.2-.1-.5-.1-.7.5 0 1 .1 1.5.2l.9.1c2.3.3 4.5.6 6.8 1 4.5.7 8.9 1.5 13.1 2.4 8.8 1.9 17.5 4.4 25.8 7.5 2.5.9 5.2-.3 6.2-2.8.9-2.5-.3-5.2-2.8-6.2-8.7-3.3-17.8-5.9-27.1-7.9-4.3-.9-8.9-1.8-13.6-2.5-2.3-.4-4.7-.7-7-1l-1-.1c-2.2-.3-5.1-.7-8.2.7-2.5 1.2-4.1 3.8-4.3 7-.1 1.4.1 2.7.2 3.7l.1.6c.2 1.2.3 2.4.5 3.6.3 2.3.7 4.7 1.1 7 .6 3.6 1.3 7.2 2.1 10.8 2 9.6 4.8 19 8.2 28.2.7 1.9 2.5 3.1 4.5 3.1.6 0 1.1-.1 1.7-.3 2.5-1.1 3.7-3.9 2.8-6.4zM249.3 227.2c-2.6-2.6-3.2-7.3-3.9-12-1.4-9.7-5.5-27.6-17.9-38.7-5.4-4.8-11.7-7.7-18.7-8.6-10.6-1.4-21.7 2.4-30.3 10.4-8.6 8-13.2 18.7-12.6 29.5 1.1 20.6 20.6 32 37 35.6 4.6 1 9.3 2 12 4.6.9.9 2.2 1.4 3.5 1.4.7 0 1.3-.1 2-.4 3.2-1.5 3-5.1 2.9-6.6-.4-5.8-3.9-9.5-6.6-12.4-1-1.1-2-2.2-2.8-3.2-.9-1.3-1.3-2.7-1-3.8.3-1 1.1-1.8 2.5-2.5 3-1.4 7.2-1.1 9.8.8 1.6 1.1 2.9 2.9 4.4 4.7 2.2 2.8 4.7 5.9 8.4 7.8 1.8.9 3.6 1.5 5.9 1.8 1.5.1 4.9.3 6.4-2.9.8-1.8.4-4-1-5.5zm-18.5-13.7c-5.4-3.9-13.4-4.6-19.5-1.7-3.9 1.9-6.7 5-7.7 8.7-1 3.8-.1 8.1 2.4 11.7.6.9 1.3 1.7 2 2.5-1.1-.3-2.1-.5-3.1-.7-13.1-2.8-28.6-11.5-29.5-26.7-.4-7.9 3.1-15.9 9.6-22 5.6-5.2 12.6-8.1 19.4-8.1 1 0 2.1.1 3.1.2 5.1.7 9.7 2.8 13.6 6.3 7.4 6.6 12.8 18.6 14.8 33.1.1.7.2 1.4.3 2.2-1.5-2-3.2-4-5.4-5.5zM185.1 147.3l-4.8-13c-2-5.3-4.2-10.6-6.6-15.7l40.2-40.2c3.1-3.1 4-7.8 2.1-11.8-1.9-4-5.9-6.4-10.3-6.1l-68.1 5c-15.3-16-32.9-29.1-52.5-38.8-.5-.3-1-.5-1.7-.8-1.8-.9-4-.5-5.4.9L25.4 79.3c-1.4 1.4-1.8 3.6-.9 5.5l.7 1.4c9.8 19.7 22.8 37.4 38.9 52.7l-5 68.2c-.3 4.4 2.1 8.5 6.1 10.3 1.4.7 2.9 1 4.4 1 2.7 0 5.4-1.1 7.4-3.1l40.2-40.3c5.1 2.4 10.4 4.6 15.6 6.5l13 4.8c1.7.6 3.7.2 5-1.1l33.1-32.9c1.4-1.3 1.9-3.3 1.2-5zm-38.7 28.9-10.1-3.8c-6-2.2-12-4.8-17.8-7.6-1.8-.9-4-.5-5.5.9l-42.6 42.7c-.1.1-.5.5-1.1.2-.6-.3-.6-.7-.5-.9l5.1-70.5c.1-1.5-.5-2.9-1.5-3.9-15.6-14.3-28.3-31.1-37.8-49.7l47.7-47.7c18.7 9.5 35.5 22.2 49.9 37.7 1 1.1 2.4 1.6 3.9 1.5l70.4-5.2c.2 0 .6 0 .9.5.3.6-.1 1-.2 1.1l-42.6 42.6c-1.4 1.4-1.8 3.6-.9 5.5 2.8 5.8 5.4 11.8 7.7 18l3.7 10.1-28.7 28.5z" fill="#a80900" class="fill-000000"></path><path d="M83.7 84.9c-4.4 4.4-6.9 10.3-6.9 16.6 0 6.3 2.4 12.2 6.9 16.6 4.4 4.4 10.3 6.9 16.6 6.9 6.3 0 12.2-2.4 16.6-6.9 9.1-9.1 9.1-24 0-33.2-9.2-9.1-24-9.1-33.2 0zm26.4 26.4c-2.6 2.6-6.1 4.1-9.8 4.1-3.7 0-7.2-1.4-9.8-4.1-2.6-2.6-4.1-6.1-4.1-9.8 0-3.7 1.5-7.2 4.1-9.8 2.7-2.7 6.3-4.1 9.8-4.1 3.6 0 7.1 1.4 9.8 4.1 5.4 5.4 5.4 14.2 0 19.6z" fill="#a80900" class="fill-000000"></path></svg>