<svg viewBox="0 0 512 512" xml:space="preserve" xmlns="http://www.w3.org/2000/svg"><path d="M486.5 154.021h-34.555a26.662 26.662 0 0 1 1.223 8 27.1 27.1 0 0 1-.099 2.218c7.981 1.238 14.098 8.12 14.098 16.449 0 9.205-7.462 16.667-16.667 16.667H27.834c-9.204 0-16.667-7.462-16.667-16.667 0-9.205 7.463-16.667 16.667-16.667h77.416a26.46 26.46 0 0 1-.083-2c0-14.728 11.939-26.667 26.667-26.667h186.132c.99-8.26 8.011-14.667 16.536-14.667H486.5c9.205 0 16.667 7.462 16.667 16.667 0 9.205-7.462 16.667-16.667 16.667zM450.835 364.021h-1.017c.446-2.152.683-4.381.683-6.666v-3.334c0-18.041-14.625-32.666-32.666-32.666h-89.337c.433-1.934.669-3.939.669-6.002v-.666c0-15.096-12.237-27.334-27.333-27.334H45.167c-15.096 0-27.333 12.238-27.333 27.334v.666c0 15.096 12.237 27.334 27.333 27.334h236.689a32.589 32.589 0 0 0-2.022 11.334v3.334c0 2.285.236 4.514.683 6.666H70.167c-10.861 0-19.666 8.805-19.666 19.666s8.805 19.666 19.666 19.666h380.668c10.861 0 19.666-8.805 19.666-19.666s-8.805-19.666-19.666-19.666zM112.834 92.354h-50c-4.476 0-8.301 2.76-9.884 6.666H23.487c-8.094 0-14.654 6.562-14.654 14.654 0 8.094 6.561 14.654 14.654 14.654h68.691c8.09 0 14.646-6.555 14.653-14.641h6.002c5.892 0 10.667-4.776 10.667-10.667.001-5.891-4.774-10.666-10.666-10.666z" fill="#333333" class="fill-d7ecf4"></path><g fill="none" stroke="#333333" stroke-linecap="round" stroke-linejoin="round" stroke-miterlimit="10" stroke-width="3" class="stroke-231f20"><path d="M419.542 411.771v-46M413.833 418.146l5.834-5.834 5.834 5.834M425.501 360.021l-5.834 5.833-5.834-5.833M439.253 400.535l-39.838-23M441.919 408.666l-2.135-7.969 7.969-2.135M397.415 369.5l2.135 7.969-7.969 2.135M439.376 377.848l-39.836 23M447.751 379.605l-7.969-2.136 2.137-7.969M391.581 398.564l7.969 2.135-2.135 7.969"></path></g><g fill="none" stroke="#333333" stroke-linecap="round" stroke-linejoin="round" stroke-miterlimit="10" stroke-width="1.61" class="stroke-231f20"><path d="M400.646 160.754v-24.68M397.584 164.174l3.129-3.13 3.131 3.13M403.844 132.989l-3.131 3.13-3.129-3.13M411.221 154.726l-21.373-12.34M412.651 159.088l-1.145-4.275 4.275-1.146M388.774 138.075l1.146 4.275-4.275 1.146M411.287 142.553l-21.372 12.34M415.781 143.497l-4.275-1.147 1.146-4.275M385.645 153.667l4.275 1.146-1.146 4.276"></path></g><g fill="none" stroke="#333333" stroke-linecap="round" stroke-linejoin="round" stroke-miterlimit="10" stroke-width="1.61" class="stroke-231f20"><path d="M64.979 363.754v-24.68M61.917 367.174l3.129-3.129 3.131 3.129M68.177 335.988l-3.131 3.131-3.129-3.131M75.554 357.727l-21.373-12.34M76.983 362.088l-1.144-4.276 4.275-1.144M53.106 341.074l1.147 4.276-4.275 1.146M75.62 345.553l-21.373 12.34M80.114 346.496l-4.275-1.146 1.146-4.276M49.978 356.668l4.275 1.144-1.147 4.278"></path></g><g fill="none" stroke="#333333" stroke-linecap="round" stroke-linejoin="round" stroke-miterlimit="10" stroke-width="3" class="stroke-231f20"><path d="M79.793 152.771v-46"></path><path d="m79.917 164.981-5.833-5.833 5.833-5.834 5.834 5.834zM79.918 106.856l-5.834-5.834 5.834-5.833 5.833 5.833z" stroke-width="2.9999700000000002"></path><path d="m99.503 141.536-39.837-23M110.137 147.535l-7.969 2.136-2.136-7.97 7.969-2.135zM59.801 118.469l-7.967 2.136-2.136-7.97 7.967-2.136zM99.628 118.849l-39.837 22.999M110.138 112.633l-2.136 7.969-7.97-2.137 2.136-7.968z"></path><path d="m59.805 141.696-2.134 7.968-7.97-2.135 2.135-7.968z" stroke-width="2.99991"></path></g><g fill="none" stroke="#333333" stroke-linecap="round" stroke-linejoin="round" stroke-miterlimit="10" stroke-width="1.424" class="stroke-231f20"><path d="M472.524 354.307v-21.832"></path><path d="m472.584 360.107-2.77-2.77 2.77-2.77 2.77 2.77zM472.584 332.52l-2.77-2.77 2.77-2.769 2.77 2.77z" stroke-width="1.42398576"></path><path d="m481.878 348.975-18.906-10.916M486.937 351.801l-3.782 1.014-1.014-3.783 3.782-1.014zM463.046 338.01l-3.781 1.013-1.014-3.784 3.781-1.013zM481.938 338.207l-18.906 10.916"></path><path d="m486.942 335.248-1.014 3.783-3.784-1.013 1.014-3.784z" stroke-width="1.42395728"></path><path d="m463.05 349.065-1.013 3.782-3.781-1.014 1.013-3.781z"></path></g><path d="M458.896 200.877c-5.66-23.781-100.336-35.546-214.683-26.32-114.346 9.226-205.91 36.018-207.686 60.398-.116-.49-3.349 13.981-.492 32.813 2.856 18.832 5.361 28.492 5.398 27.99 5.66 23.779 100.336 35.545 214.682 26.32 114.347-9.227 205.911-36.02 207.686-60.398.057.236 1.327-14.128.135-28.938-1.273-15.806-5.02-32.124-5.04-31.865zm-357.285 59.426c37.523-11.09 89.592-20.271 147.509-24.944s110.783-3.959 149.6.973c-37.523 11.09-89.592 20.271-147.509 24.944-57.917 4.671-110.784 3.956-149.6-.973z" fill="#a80900" stroke="#333333" stroke-linecap="round" stroke-linejoin="round" stroke-miterlimit="10" stroke-width="6" class="fill-ffffff stroke-231f20"></path><path d="M101.611 260.303s-32.921-4.367-43.331-9.044c-12.105-7.049 30.815-37.136 90.191-48.912 31.27-6.201 108.958-21.499 215.795-15.404 52.36 2.987 48.409 48.562 33.816 46.097-28.141-4.752-88.048-5.337-139.549-1.183-64.255 5.184-130.98 13.951-156.922 28.446z" fill="#8f271f" class="fill-e5e5e5"></path><path d="M50.418 247.892c5.167 2.456 11.652 4.669 19.293 6.617 38.278 9.762 105.554 12.893 181.5 6.766 90.478-7.3 166.7-25.6 195.459-44.998" fill="none" stroke="#333333" stroke-linecap="round" stroke-linejoin="round" stroke-miterlimit="10" stroke-width="6" class="stroke-231f20"></path><path d="M412.387 213.04c10.678 1.885 19.896 4.155 27.39 6.777M391.987 210.111a370.63 370.63 0 0 1 14.181 1.9M369.667 208.086c3.142.216 6.223.454 9.239.714M398.48 219.615c10.888 1.416 20.647 3.168 29.075 5.229M98.375 308.924a359.315 359.315 0 0 1-7.45-1.32" fill="none" stroke="#333333" stroke-linecap="round" stroke-linejoin="round" stroke-miterlimit="10" stroke-width="3" class="stroke-231f20"></path><path d="m39.19 267.514 3.27 19.801 1.89 8.402a9.425 9.425 0 0 1 .009-1.455c5.477 23.008 97.086 34.393 207.727 25.467 72.854-5.879-40.913 2.818-128.111-19.756-45.228-11.711-84.785-32.459-84.785-32.459z" fill="#8f271f" class="fill-e5e5e5"></path><path d="M135.802 312.314c-8.465.168-18.606-.6-30.119-2.252M128.143 304.912c-3.904-.221-8.062-.59-12.45-1.102" fill="none" stroke="#333333" stroke-linecap="round" stroke-linejoin="round" stroke-miterlimit="10" stroke-width="3" class="stroke-231f20"></path></svg>