<svg viewBox="0 0 512 512" xml:space="preserve" xmlns="http://www.w3.org/2000/svg" enable-background="new 0 0 512 512"><path d="M446.549 218.282v9.683h3.624c3.046 0 4.014.45 4.014 1.576 0 .676-.414 1.466-1.247 2.591l-14.365 15.337c-1.833 2.098-3.797 1.88-5.399.207l-13.542-14.759c-.693-.897-1.801-1.798-1.801-2.926 0-1.351 1.526-2.026 5.126-2.026h3.537v-9.683h-49.694v9.683c12.315 0 11.704 1.127 16.127 6.304l26.768 29.61v14.977c0 3.83-1.939 5.178-7.474 5.178h-8.581v9.341h54.949v-9.341h-8.581c-5.539 0-7.474-1.348-7.474-5.178v-14.977l22.725-24.543c8.307-10.471 9.413-11.371 15.366-11.371h5.154v-9.683h-39.232zM46.784 235.617c0-5.965 11.034-10.02 24.107-10.02 10.13 0 22.172 4.255 27.734 9.365 3.085 2.833 6.464 4.935 7.445 10.337h11.07v-27.021h-11.986c.031 6.202-2.354 6.003-4.9 4.354-9.179-5.191-18.747-6.718-30.179-6.718-27.129 0-44.288 9.683-44.288 25.107 0 14.861 13.564 19.025 32.193 21.841l16.508 2.704c19.444 3.037 25.479 4.39 25.479 10.021 0 5.625-6.102 9.504-23.845 9.683-11.768.115-24.6-3.489-29.991-8.446-3.106-2.815-6.485-4.278-8.937-11.372H26.078v27.922h12.291c.521-3.927 1.704-7.055 4.492-5.447 8.89 4.721 23.958 7.811 33.915 7.811 28.762 0 44.779-9.12 44.779-25.443 0-31.3-74.771-18.125-74.771-34.678zm277.758-7.422h6.882c5.862 0 7.907 1.352 7.907 5.291l-.235 30.031-47.654-44.666h-39.315v9.344h7.534c5.857 0 7.907 1.352 7.907 5.291v45.937c0 3.826-2.05 5.289-7.907 5.289h-7.534v9.235h45.471v-9.235h-7.619c-5.856 0-7.906-1.463-7.906-5.289v-38.167l55.497 52.557 17.138.135v-60.461c0-3.939 2.05-5.291 7.912-5.291h5.707v-9.344h-43.784v9.343zm-132.111-12.849c-34.896 0-56.738 15.427-56.738 40.194 0 24.32 21.54 39.629 55.674 39.629 36.256 0 57.346-15.082 57.346-40.867 0-23.191-22.758-38.956-56.282-38.956zm-.794 70.03c-19.315 0-30.419-11.146-30.419-30.398 0-18.801 11.586-29.949 31.384-29.949 18.993 0 30.096 11.373 30.096 30.738 0 18.916-11.264 29.609-31.061 29.609z" fill-rule="evenodd" clip-rule="evenodd" fill="#ffffff" class="fill-1b1b1b"></path></svg>