<svg viewBox="0 0 48 48" xml:space="preserve" xmlns="http://www.w3.org/2000/svg" enable-background="new 0 0 48 48"><path d="m18.62 35.098 2.481 2.344.919-2.998-1.66-1.041zM24.908 19.284h-2.331l1.147 5.72zM28.116 20.905l-2.632-1.444-1.295 6.254c.847-.764 2.403-2.352 3.927-4.81zM22.005 19.484l-2.273 1.529c1.051 1.72 2.233 3.358 3.508 4.633l-1.235-6.162zM25.032 18.685l1.018-4.914-4.605-.134 1.012 5.048zM30.54 15.827l-3.912-1.887-1.016 4.906 2.818 1.546a26.268 26.268 0 0 0 2.11-4.565zM17.078 16.018a53.214 53.214 0 0 0 2.344 4.48l2.456-1.65-1.042-5.197-3.758 2.367zM18.189 35.517l-1.344 1.308-.459.389c1.11 1.362 2.374 2.586 3.73 3.472l.173-.593.616-2.011-2.716-2.565zM25.552 33.758 27 32.715l-2.552-2.154zM22.78 34.013h2.225l-1.18-3.416zM22.595 34.612l-.943 3.08h4.623l-1.063-3.08zM29.475 34.804l-2.003-1.69-1.715 1.236 1.067 3.091zM22.202 33.85l.977-3.19-2.376 2.312zM16.824 15.469l3.818-2.405c.022-.014.048-.012.072-.02l-1.12-5.589-.12-.54c-1.597.633-3.338 1.675-4.766 3.378l.233.604c.18.5.849 2.306 1.883 4.572zM30.735 15.254a28.359 28.359 0 0 0 1.24-5.736s.048-.366.086-.706a10.27 10.27 0 0 0-3.893-2.315l-.123.603-1.292 6.235 3.982 1.92zM21.324 13.033l4.85.142 1.298-6.27.138-.566c-1.06-.286-2.24-.45-3.579-.423-.11.001-1.847.046-3.976.784l.108.543 1.16 5.79zM29.936 35.193l-2.894 2.878.74 2.143.2.57c1.33-.734 2.84-1.877 4.261-3.659l-.465-.378-1.842-1.554z" fill="#a80900" class="fill-303030"></path><path d="M35.872 15.87c-.01-.06-.63-3.692-3.295-6.552-.026.274-.057.588-.078.771a31.3 31.3 0 0 1-.359 2.181 29.254 29.254 0 0 1-.673 2.662 26.822 26.822 0 0 1-1.447 3.722 26.758 26.758 0 0 1-1.693 3.03 25.786 25.786 0 0 1-1.692 2.311 23.685 23.685 0 0 1-1.241 1.386 20.23 20.23 0 0 1-.784.76 15.506 15.506 0 0 1-.604.521 6.245 6.245 0 0 1-.11.086.301.301 0 0 1-.375-.016c-4.68-4.087-8.167-12.974-9.005-15.247l-.24-.65c-1.113 1.512-1.98 3.484-2.333 6.07-.031.363-.751 8.918.454 13.17.512 1.802 1.842 4.38 3.63 6.69l.44-.41.072-.07.207-.201.322-.313.42-.409.498-.485a9564.484 9564.484 0 0 1 5.396-5.246c.062-.06.122-.119.184-.177a.458.458 0 0 1 .186-.127c.091-.025.175.017.25.072l8.14 6.87.453.396c1.113-1.496 2.158-3.401 3-5.836a7.675 7.675 0 0 0 .375-1.764c.222-2.301.66-8.194-.098-13.195zM22.717 27.93l-5.01 4.607a.3.3 0 0 1-.4.005c-.22-.193-5.37-4.847-2.948-15.488a.3.3 0 0 1 .585-.001c.016.07 1.696 7.077 7.715 10.394a.3.3 0 0 1 .058.483zm7.786 4.612a.299.299 0 0 1-.401-.005l-5.009-4.607a.3.3 0 0 1 .058-.483c6.02-3.317 7.699-10.323 7.715-10.393a.3.3 0 0 1 .585.001c2.42 10.64-2.728 15.294-2.948 15.487zM26.483 38.29h-5.015l-.653 2.133-.187.582c1.104.639 2.254 1.052 3.42 1.082.033-.002 1.468-.084 3.391-1.023l-.195-.568-.761-2.205z" fill="#a80900" class="fill-303030"></path></svg>