<svg viewBox="0 0 512 512" xml:space="preserve" xmlns="http://www.w3.org/2000/svg"><path d="M477.322 132.487h-70.021c-36.232-39.089-88.01-63.563-145.512-63.563-109.562 0-198.378 88.816-198.378 198.377 0 23.45 4.081 45.945 11.551 66.827H62.884c-4.63 0-8.419 3.789-8.419 8.419 0 4.631 3.789 8.42 8.419 8.42H81.88c1.831 3.93 3.78 7.792 5.855 11.576H33.417C23.288 362.543 15 370.83 15 380.96s8.288 18.417 18.417 18.417h80.368c36.329 40.682 89.17 66.301 148.004 66.301 109.561 0 198.377-88.816 198.377-198.377 0-24.607-4.492-48.161-12.682-69.904 9.91-.255 17.943-8.423 17.943-18.393 0-10.129-8.287-18.417-18.416-18.417h-17.967a199 199 0 0 0-7.768-11.262h56.045c4.629 0 8.418-3.789 8.418-8.419.001-4.63-3.788-8.419-8.417-8.419z" fill="#333333" class="fill-598889"></path><path d="M477.322 132.487H363.555c-28.303-21.398-63.551-34.096-101.766-34.096-93.288 0-168.911 75.624-168.911 168.911 0 23.74 4.906 46.33 13.746 66.827h-43.74c-4.63 0-8.419 3.789-8.419 8.419 0 4.631 3.789 8.42 8.419 8.42h52.143a169.248 169.248 0 0 0 7.255 11.576H33.417c-10.129 0-18.417 8.287-18.417 18.417s8.288 18.417 18.417 18.417h123.085c28.875 23.049 65.468 36.834 105.287 36.834 93.285 0 168.91-75.623 168.91-168.91 0-24.924-5.402-48.583-15.092-69.88h31.404c10.129 0 18.416-8.288 18.416-18.417 0-10.129-8.287-18.417-18.416-18.417h-54.297a170.035 170.035 0 0 0-10.061-11.262h94.668c4.629 0 8.418-3.789 8.418-8.419.001-4.631-3.788-8.42-8.417-8.42z" fill="#a80900" class="fill-466c6f"></path><circle cx="160.177" cy="156.138" fill="#333333" r="101.753" class="fill-f4f4f4"></circle><path d="M186.512 254.425c52.181-13.982 83.96-66.082 73.423-118.313L63.77 188.674c16.991 50.502 70.563 79.732 122.742 65.751z" fill="#333333" class="fill-e0e0e0"></path><path d="M137.079 82.605c9.881 0 17.891-8.01 17.891-17.891 0-3.708-1.128-7.151-3.059-10.007a102.244 102.244 0 0 0-18.069 3.146 102.438 102.438 0 0 0-14.564 5.101c-.057.58-.089 1.167-.089 1.761-.001 9.88 8.009 17.89 17.89 17.89z" fill="#a80900" class="fill-e2d9d9"></path><circle cx="171.282" cy="73.66" fill="#a80900" r="6.841" class="fill-e2d9d9"></circle><ellipse cx="137.079" cy="209.946" fill="#312d2d" rx="19.996" ry="14.733" class="fill-d3cdcd"></ellipse><ellipse cx="92.878" cy="144.143" fill="#a80900" rx="17.891" ry="13.183" transform="rotate(-14.999 92.883 144.15)" class="fill-e2d9d9"></ellipse><path d="M127.084 252.371a8.898 8.898 0 0 0 1.575-5.065 8.946 8.946 0 0 0-8.946-8.946c-4.223 0-7.753 2.931-8.692 6.866a102.196 102.196 0 0 0 16.063 7.145z" fill="#312d2d" class="fill-d3cdcd"></path><circle cx="207.063" cy="206.262" fill="#312d2d" r="8.945" class="fill-d3cdcd"></circle><circle cx="82.88" cy="177.847" fill="#a80900" r="8.946" class="fill-e2d9d9"></circle><ellipse cx="224.954" cy="134.173" fill="#a80900" rx="25.784" ry="17.891" transform="rotate(-14.999 224.972 134.181)" class="fill-e2d9d9"></ellipse><ellipse cx="181.806" cy="167.85" fill="#312d2d" rx="21.574" ry="15.786" class="fill-d3cdcd"></ellipse><path d="M249.686 167.85c-10.462 0-18.943 8.481-18.943 18.943 0 10.242 8.134 18.564 18.292 18.91a101.891 101.891 0 0 0 11.753-34.236 18.833 18.833 0 0 0-11.102-3.617zM197.066 234.151a9.472 9.472 0 0 0-3.723 18.182 101.621 101.621 0 0 0 12.537-5.262 9.426 9.426 0 0 0 .657-3.449c0-5.23-4.241-9.471-9.471-9.471z" fill="#312d2d" class="fill-d3cdcd"></path><path d="M82.775 330.062c0-3.693 3.021-6.715 6.714-6.715h95.601c3.693 0 6.714 3.021 6.714 6.715 0 3.693-3.021 6.715-6.714 6.715H89.489c-3.693-.001-6.714-3.022-6.714-6.715zM332.193 217.65c0-5.583 4.568-10.149 10.15-10.149h144.508c5.582 0 10.148 4.566 10.148 10.149 0 5.582-4.566 10.149-10.148 10.149H342.344c-5.582 0-10.151-4.568-10.151-10.149z" fill="#333333" class="fill-5aa096"></path><circle cx="348.25" cy="315.438" fill="#a80900" r="54.198" class="fill-b8e3eb"></circle><path d="M402.424 316.736a54.015 54.015 0 0 0-.564-9.335c-.055-.002-.111-.008-.164-.01-33.297-1.093-66.293-10.137-95.541-26.082a53.847 53.847 0 0 0-8.32 14.242c13.064 8.526 30.045 11.225 45.91 13.35l57.809 7.742c.28.038.573.068.87.093zM352.762 331.21c-19.322-6.088-38.727-13.161-58.709-15.559a53.812 53.812 0 0 0 3.938 20.078c11.438-1.835 23.533-.509 34.924 2.153 16.279 3.804 31.916 10.139 48.324 13.342 2.217.433 4.506.784 6.807 1.008a54.157 54.157 0 0 0 6.73-8.994c-14.079-3.757-28.118-7.651-42.014-12.028zM356.766 261.912c-14.434-2.296-28.432 1.345-39.537 9.101 8.193 4.851 18.221 7.408 27.66 9.556l26.256 5.973c8.375 1.905 16.832 3.8 25.385 4.283-7.612-14.898-21.981-26.084-39.764-28.913zM339.736 368.964a53.958 53.958 0 0 0 25.4-2.029c-8.943-1.356-17.855-5.584-26.217-9.459-10.053-4.656-21.65-8.855-32.168-7.197 8.099 9.651 19.565 16.55 32.985 18.685zM397.4 338.274a54.193 54.193 0 0 0 3.666-10.729c-9.207 1.154-18.799-1.626-27.17-5.724-28.729-14.063-52.838-8.688-78.68-17.56-.184.879-.35 1.765-.492 2.66a54.804 54.804 0 0 0-.455 3.828c8.637-.003 17.314 2.036 25.779 4.074 26.225 6.317 52.665 12.72 77.352 23.451z" fill="#333333" class="fill-71b7d3"></path><circle cx="92.878" cy="266.775" fill="#333333" r="8.419" class="fill-66b2b2"></circle><circle cx="149.09" cy="288.876" fill="#333333" r="17.891" class="fill-66b2b2"></circle><circle cx="419.403" cy="77.459" fill="#333333" r="20.131" class="fill-66b2b2"></circle><circle cx="387.842" cy="425.655" fill="#333333" r="20.131" class="fill-66b2b2"></circle><circle cx="423.332" cy="258.356" fill="#333333" r="8.42" class="fill-66b2b2"></circle><circle cx="306.516" cy="399.378" fill="#333333" r="8.42" class="fill-66b2b2"></circle><circle cx="293.887" cy="73.134" fill="#333333" r="8.42" class="fill-66b2b2"></circle><circle cx="306.516" cy="240.465" fill="#333333" r="8.42" class="fill-66b2b2"></circle><path d="M278.35 140.636 51.23 201.493c-5.048 1.353-10.285-1.671-11.637-6.719l-.303-1.13c-1.353-5.048 1.671-10.285 6.719-11.638l227.12-60.856c5.047-1.353 10.285 1.671 11.637 6.719l.303 1.13c1.353 5.048-1.671 10.285-6.719 11.637z" fill="#a80900" class="fill-52c9d5"></path><path d="m51.23 201.493 227.119-60.856c4.93-1.321 7.916-6.344 6.795-11.279L39.706 195.122c1.498 4.835 6.596 7.691 11.524 6.371z" fill="#a80900" class="fill-49bac0"></path><circle cx="230.216" cy="379.909" fill="#333333" r="28.941" class="fill-ff7143"></circle><path d="M220.67 352.587c-.125.044-.245.094-.368.14l19.086 54.624c.125-.042.25-.077.375-.121 15.088-5.271 23.048-21.777 17.774-36.867-5.272-15.09-21.778-23.048-36.867-17.776z" fill="#312d2d" class="fill-e5603c"></path><path fill="#a80900" d="m354.197 46.321 5.194 10.521L371 58.529l-8.4 8.19 1.982 11.564-10.385-5.46-10.384 5.46 1.982-11.564-8.4-8.19 11.609-1.687zM439.197 412.321l5.194 10.522L456 424.529l-8.4 8.19 1.982 11.563-10.385-5.459-10.384 5.459 1.982-11.563-8.4-8.19 11.609-1.686zM479.197 238.321l5.194 10.521L496 250.529l-8.4 8.19 1.982 11.563-10.385-5.459-10.384 5.459 1.982-11.563-8.4-8.19 11.609-1.687zM35.197 291.321l5.193 10.522L52 303.529l-8.401 8.19 1.983 11.563-10.385-5.459-10.385 5.459 1.983-11.563-8.401-8.19 11.611-1.686z" class="fill-ffd326"></path></svg>