<svg viewBox="0 0 512 512" xml:space="preserve" xmlns="http://www.w3.org/2000/svg"><path d="M420.92 188.539a5 5 0 0 0 5-5V137.33c6.498-1.907 11.26-7.914 11.26-15.02V30.65c0-8.629-7.025-15.65-15.66-15.65H397a5 5 0 1 0 0 10h24.52c3.121 0 5.66 2.535 5.66 5.65v91.66a5.666 5.666 0 0 1-5.66 5.66h-1.27c-2.598 0-4.914-1.729-5.507-4.105-3.404-13.709-13.989-24.903-28.307-29.939-5.322-1.882-10.934-2.836-16.677-2.836-1.43 0-2.818.057-4.177.173-1.868.175-3.585-.612-4.759-2.017-.633-.757-1.633-2.365-1.224-4.628l.02-.116c.03-.194.122-.785.321-3.144.093-1.071.192-2.456.208-3.134l.001-.114a38.075 38.075 0 0 0-2.34-13.147c-4.917-13.402-17.109-23.79-32.373-27.344a50.164 50.164 0 0 0-1.647-.354c-2.791-.551-4.74-2.848-4.74-5.584v-1.03a5.657 5.657 0 0 1 5.65-5.65h35.992a5 5 0 1 0 0-10H324.7c-6.88 0-12.725 4.468-14.817 10.65H202.116C200.024 19.468 194.18 15 187.3 15H90.48c-8.635 0-15.66 7.021-15.66 15.65v91.66c0 7.103 4.757 13.107 11.25 15.017v232.187c-6.493 1.91-11.25 7.914-11.25 15.017v48.405c0 2.762 2.238 5 5 5s5-2.238 5-5V384.53a5.666 5.666 0 0 1 5.66-5.66h1.029c.336 0 .666.031.988.091 2.256.42 4.111 2.251 4.588 4.662 3.51 17.684 16.111 31.553 32.104 35.333 2.912.687 5.883 1.05 8.843 1.022.704-.014 2.134-.12 3.14-.207.589-.049 1.066-.092 1.456-.129 1.168-.111 1.535-.166 1.681-.188l.146-.024c2.253-.408 3.858.584 4.614 1.215a5.625 5.625 0 0 1 2.019 4.806 48.624 48.624 0 0 0-.169 4.139c0 5.764.951 11.375 2.824 16.673 5.048 14.313 16.238 24.896 29.936 28.31 2.382.594 4.11 2.906 4.11 5.498v1.279c0 3.115-2.539 5.65-5.66 5.65H90.48c-3.121 0-5.66-2.535-5.66-5.65v-17.684a5 5 0 1 0-10 0v17.684c0 8.63 7.025 15.65 15.66 15.65h91.649c6.884 0 12.732-4.468 14.826-10.65h118.088c2.094 6.183 7.942 10.65 14.826 10.65h39.992c2.762 0 5-2.238 5-5s-2.238-5-5-5H329.87c-3.121 0-5.66-2.535-5.66-5.65v-1.279c0-2.592 1.729-4.904 4.109-5.498 13.698-3.413 24.889-13.996 29.935-28.305 1.875-5.303 2.826-10.914 2.826-16.678 0-1.443-.057-2.835-.174-4.196a5.625 5.625 0 0 1 2.023-4.749c.756-.629 2.355-1.622 4.614-1.215l.146.024c.145.022.513.077 1.679.188.389.037.867.08 1.455.129 1.009.087 2.438.193 3.143.207 2.924.033 5.931-.336 8.844-1.023 15.992-3.779 28.594-17.648 32.104-35.336.476-2.407 2.331-4.238 4.587-4.658.322-.06.652-.091.988-.091h1.03a5.666 5.666 0 0 1 5.66 5.66v96.819c0 3.115-2.539 5.65-5.66 5.65H405c-2.762 0-5 2.238-5 5s2.238 5 5 5h16.52c8.635 0 15.66-7.021 15.66-15.65V384.53c0-7.106-4.762-13.112-11.26-15.02V215.667a5 5 0 1 0-10 0v153.899c-.181.056-.355.124-.533.187-.11.039-.221.074-.33.115-.382.145-.758.3-1.126.473-.033.016-.064.034-.098.051-.333.159-.66.332-.98.514-.11.063-.218.13-.325.195a15.3 15.3 0 0 0-1.789 1.252c-.078.063-.158.121-.234.186-.311.26-.61.531-.899.814-.063.062-.121.127-.183.189a16.064 16.064 0 0 0-.916 1.012c-.183.219-.357.441-.528.67-.08.107-.161.214-.238.324-.194.274-.38.557-.558.846-.039.063-.081.122-.119.186-.209.352-.404.713-.588 1.082-.052.104-.098.212-.147.318a15.458 15.458 0 0 0-.518 1.234c-.103.276-.196.557-.284.841-.038.126-.08.251-.116.378-.115.409-.219.822-.303 1.245-2.749 13.853-12.403 24.665-24.595 27.547a28.137 28.137 0 0 1-6.378.757l-.054-.003a64.893 64.893 0 0 1-2.406-.169c-1.695-.145-2.288-.216-2.441-.236a15.575 15.575 0 0 0-12.708 3.395 15.6 15.6 0 0 0-5.575 13.342c.088 1.02.132 2.123.132 3.281 0 4.625-.759 9.114-2.256 13.348-3.867 10.969-12.651 19.371-22.924 21.932-.396.099-.785.217-1.168.345-.122.041-.242.089-.363.133a13.146 13.146 0 0 0-1.168.481c-.236.109-.47.226-.7.346-.126.066-.252.132-.375.2-.25.142-.494.291-.735.444-.091.059-.186.112-.275.173-.325.218-.643.447-.948.688-.061.049-.118.101-.178.149-.244.198-.483.401-.714.614-.099.09-.193.185-.289.277a14.382 14.382 0 0 0-.837.875c-.173.195-.339.395-.501.6-.084.104-.168.207-.249.313-.19.252-.371.511-.546.773-.042.063-.088.123-.129.188-.211.328-.409.665-.597 1.01-.051.095-.097.193-.146.29-.132.254-.258.511-.375.772-.058.129-.111.259-.166.389-.101.241-.194.484-.283.73-.049.136-.098.271-.143.409a15.04 15.04 0 0 0-.235.792c-.033.122-.07.243-.101.367-.011.041-.024.082-.034.123H197.355c-.01-.041-.023-.082-.034-.124-.03-.123-.067-.243-.1-.364-.073-.268-.15-.532-.236-.794a16.5 16.5 0 0 0-.427-1.14c-.054-.13-.107-.259-.164-.387a15.504 15.504 0 0 0-.378-.778c-.049-.094-.094-.191-.145-.285a15.997 15.997 0 0 0-.598-1.012c-.039-.061-.083-.117-.122-.177a16.688 16.688 0 0 0-.553-.783c-.08-.104-.163-.206-.244-.308a15.535 15.535 0 0 0-.791-.919c-.18-.193-.365-.38-.556-.563-.094-.091-.186-.184-.281-.271a15.036 15.036 0 0 0-.729-.627c-.055-.045-.107-.093-.163-.137a15.426 15.426 0 0 0-.954-.691c-.085-.057-.175-.108-.262-.164-.245-.157-.494-.31-.749-.453-.12-.066-.243-.131-.366-.195a15.651 15.651 0 0 0-1.104-.528 15.715 15.715 0 0 0-.774-.303c-.12-.044-.237-.091-.358-.132a15.452 15.452 0 0 0-1.169-.345c-10.271-2.561-19.056-10.963-22.925-21.936-1.495-4.229-2.254-8.719-2.254-13.344 0-1.158.044-2.262.127-3.224a15.6 15.6 0 0 0-5.571-13.4 15.778 15.778 0 0 0-1.537-1.121 15.582 15.582 0 0 0-11.172-2.273c-.152.021-.746.092-2.443.236a64.439 64.439 0 0 1-2.457.172 28.184 28.184 0 0 1-6.377-.756c-12.192-2.883-21.847-13.695-24.595-27.544a15.634 15.634 0 0 0-.304-1.247c-.035-.126-.076-.249-.114-.374a17.196 17.196 0 0 0-.439-1.245 15.759 15.759 0 0 0-.368-.842c-.048-.103-.093-.207-.143-.309-.185-.371-.38-.734-.592-1.087-.034-.059-.073-.113-.108-.171-.181-.295-.37-.582-.569-.863-.075-.106-.154-.211-.232-.315-.172-.231-.35-.457-.533-.678-.086-.103-.17-.205-.258-.306a16.8 16.8 0 0 0-.657-.703c-.062-.063-.12-.128-.182-.189a16.553 16.553 0 0 0-.902-.816c-.073-.063-.151-.119-.226-.18a16.14 16.14 0 0 0-.742-.566c-.108-.078-.219-.152-.328-.228a15.13 15.13 0 0 0-.726-.463c-.108-.065-.216-.132-.326-.194-.314-.18-.635-.348-.961-.505-.04-.02-.079-.042-.118-.061a15.467 15.467 0 0 0-1.126-.473c-.108-.041-.219-.076-.328-.114-.181-.064-.359-.133-.542-.189V137.37c5.303-1.482 9.527-5.627 10.893-11.095.943-3.799 2.658-7.396 5.096-10.69a5 5 0 0 0-1.044-6.994 4.998 4.998 0 0 0-6.993 1.044c-3.227 4.359-5.502 9.146-6.763 14.224-.595 2.382-2.911 4.111-5.509 4.111h-1.27a5.666 5.666 0 0 1-5.66-5.66V30.65c0-3.115 2.539-5.65 5.66-5.65h96.82a5.657 5.657 0 0 1 5.65 5.65v1.03c0 2.737-1.949 5.033-4.741 5.585-17.688 3.499-31.562 16.101-35.345 32.105a38.075 38.075 0 0 0-1.014 8.854c.016.678.115 2.063.207 3.127.2 2.366.292 2.957.322 3.151l.02.116c.409 2.264-.591 3.872-1.224 4.628a5.62 5.62 0 0 1-4.81 2.012 48.594 48.594 0 0 0-4.125-.168c-3.48 0-6.945.354-10.298 1.053a5 5 0 1 0 2.039 9.79 40.582 40.582 0 0 1 8.259-.843c1.146 0 2.248.044 3.222.127a15.59 15.59 0 0 0 13.387-5.559 15.611 15.611 0 0 0 3.406-12.732c-.029-.212-.108-.936-.234-2.425a64.384 64.384 0 0 1-.172-2.459 28 28 0 0 1 .747-6.373c2.884-12.2 13.699-21.854 27.553-24.595 6.059-1.197 10.758-5.739 12.276-11.425H309.57l.016.051c.023.086.053.17.078.256.091.313.188.624.299.93.047.132.1.261.15.391.101.26.207.516.322.769.061.133.121.265.185.396.126.257.259.509.397.759.063.111.121.224.186.333a16.208 16.208 0 0 0 .66 1.034c.235.337.487.663.748.98.077.093.158.182.236.273a14.523 14.523 0 0 0 .891.954c.198.195.401.385.609.57.105.093.209.187.316.277.239.202.486.395.738.583.081.06.158.124.24.183.336.241.681.469 1.036.684.081.05.166.093.249.141.277.161.56.316.849.462.13.065.262.125.394.187a16.505 16.505 0 0 0 1.199.505c.273.102.552.194.833.282.13.04.259.084.391.121.412.117.83.222 1.257.306 13.854 2.741 24.67 12.395 27.554 24.595.491 2.075.742 4.219.747 6.374a63.827 63.827 0 0 1-.173 2.466c-.125 1.482-.204 2.206-.233 2.416a15.595 15.595 0 0 0 3.406 12.733 15.59 15.59 0 0 0 13.336 5.564 38.53 38.53 0 0 1 3.273-.132c4.604 0 9.094.762 13.351 2.267 10.974 3.86 19.375 12.642 21.929 22.923.098.393.215.776.342 1.154.039.12.085.235.127.354.096.261.195.519.303.773.055.126.109.252.166.377.117.253.24.502.37.748.055.104.107.211.165.314.188.339.387.671.6.992.028.044.062.085.091.128.188.278.384.549.589.813.08.102.163.201.245.301a15.438 15.438 0 0 0 1.388 1.484c.08.075.156.152.238.226.285.255.577.501.881.736.063.048.128.092.191.139.247.185.498.363.755.533.11.073.224.142.335.212.224.139.449.273.68.401.119.066.236.131.357.194.258.135.52.261.786.382.091.041.179.086.271.126.355.154.719.295 1.087.422.091.031.184.057.274.086.212.069.424.141.64.202v46.161a5 5 0 0 0 5 4.999z" fill="#a80900" class="fill-000000"></path><path d="M324.125 211.855c-.018-.135-.023-.271-.053-.402-.035-.161-.096-.316-.147-.475-.051-.155-.092-.313-.156-.461-.056-.126-.133-.244-.199-.366-.092-.169-.179-.34-.288-.497-.017-.023-.026-.049-.043-.073-.07-.097-.158-.172-.234-.262-.117-.14-.23-.28-.361-.405-.119-.114-.248-.21-.376-.31-.126-.1-.249-.201-.385-.288-.14-.089-.285-.16-.432-.234-.144-.073-.283-.148-.434-.207-.153-.06-.311-.101-.468-.146-.154-.043-.305-.091-.464-.12-.181-.033-.362-.042-.546-.055-.116-.008-.228-.035-.347-.035h-44.646l-13.787-42.455c-.037-.114-.098-.212-.142-.321-.068-.169-.133-.338-.22-.499-.077-.143-.168-.272-.258-.405-.091-.136-.178-.272-.282-.399-.104-.125-.219-.237-.333-.351-.114-.115-.227-.231-.353-.335-.127-.104-.264-.191-.399-.282-.133-.089-.261-.18-.403-.257-.165-.089-.339-.156-.513-.226-.105-.042-.199-.101-.309-.136-.026-.009-.053-.009-.079-.017-.192-.059-.392-.092-.591-.128-.126-.023-.251-.057-.377-.07-.177-.018-.356-.008-.535-.007-.15.001-.3-.009-.448.006-.147.015-.294.054-.441.082-.179.034-.357.063-.531.116-.028.009-.058.009-.086.019-.118.038-.221.101-.333.146-.163.067-.327.129-.482.212-.149.08-.284.175-.423.269-.13.087-.261.17-.382.27-.131.107-.246.227-.365.346-.11.111-.222.219-.322.34-.107.13-.196.27-.29.409-.087.13-.176.255-.251.395-.09.166-.157.341-.228.516-.042.104-.1.198-.135.307L237.45 207.52h-44.638c-.121 0-.233.027-.353.036-.179.013-.357.021-.534.054-.167.03-.324.079-.485.125-.149.043-.298.081-.443.138-.16.063-.31.142-.461.22-.137.07-.274.136-.404.219-.146.093-.276.2-.411.307-.119.095-.241.185-.353.291-.138.131-.257.277-.378.423-.072.086-.155.157-.223.249-.017.022-.025.048-.041.071-.113.161-.204.336-.298.51-.063.118-.138.231-.19.352-.067.153-.11.316-.162.476-.05.153-.109.305-.143.461-.029.134-.036.274-.055.412-.025.191-.055.381-.059.573 0 .028-.008.055-.008.083 0 .119.027.229.035.346.013.183.021.364.055.544.029.162.077.314.121.469s.084.311.143.461c.062.154.138.298.212.444.073.142.142.284.229.42.09.141.194.269.298.399.098.123.189.247.299.361.131.138.277.256.423.378.086.071.156.155.248.221l36.11 26.235-13.797 42.454c-.035.108-.043.218-.07.326-.047.184-.095.365-.12.553-.021.157-.023.313-.029.469-.007.166-.017.331-.007.498.01.16.038.316.063.474.025.163.048.323.09.483.041.157.1.306.155.457.056.152.106.304.178.451.079.164.178.316.273.471.063.1.106.206.177.303.022.031.049.057.071.087.035.046.074.089.111.135.166.204.344.393.534.563l.077.072c.222.191.46.354.708.5.047.028.095.057.144.083.261.143.53.263.81.356.016.005.029.015.046.02.039.014.079.018.118.029.174.051.35.094.528.126.071.014.142.027.213.038.209.028.42.047.631.049.019 0 .037.004.056.004.105 0 .209-.018.313-.024.153-.01.308-.013.46-.036.092-.015.179-.044.27-.063.164-.035.328-.065.49-.118.084-.027.162-.068.245-.1.192-.074.384-.154.569-.254.199-.105.394-.22.577-.352.004-.004.009-.006.013-.008l36.118-26.238 36.115 26.238c.004.002.009.004.013.008a5.202 5.202 0 0 0 1.211.631c.061.023.118.055.181.074.167.055.338.087.509.123.084.018.165.045.25.059.154.023.311.027.466.037.103.006.204.023.309.023.019 0 .037-.004.056-.004.211-.002.422-.021.631-.049.071-.011.142-.024.213-.038.179-.032.354-.075.529-.127.039-.011.078-.015.117-.028.017-.005.029-.014.046-.02.279-.094.549-.214.81-.356.049-.026.096-.055.145-.083.246-.146.484-.309.706-.499.028-.024.053-.052.081-.077.188-.168.363-.354.527-.556.039-.048.08-.093.117-.142.021-.029.047-.054.068-.084.068-.093.11-.195.171-.292.099-.159.2-.314.281-.483.069-.145.119-.293.174-.441.058-.154.117-.307.159-.467.04-.157.063-.315.088-.475.025-.161.054-.319.063-.482.01-.164-.001-.326-.007-.49-.006-.159-.008-.316-.029-.477-.025-.184-.073-.363-.118-.544-.028-.11-.036-.222-.072-.333l-13.791-42.453 36.114-26.235c.094-.068.168-.154.256-.229.143-.119.285-.234.413-.369.112-.117.206-.244.306-.37.101-.128.203-.252.292-.391.088-.138.158-.283.231-.428.074-.144.149-.285.209-.437.06-.153.101-.311.146-.468.043-.153.09-.304.119-.462.033-.183.043-.367.056-.552.008-.114.034-.224.034-.34 0-.028-.008-.054-.009-.082-.003-.193-.034-.386-.06-.581zm-56.835 5.665 6.972 21.46L256 252.247l-18.26-13.266 6.975-21.461h22.575zm-11.289-34.728 8.03 24.728h-16.066l8.036-24.728zm-47.8 34.728H234.2l-4.966 15.281-21.033-15.281zm18.252 56.191 8.037-24.731 13.003 9.446-21.04 15.285zm59.091 0-21.038-15.283 13.005-9.447 8.033 24.73zm-7.739-56.191h25.998l-21.034 15.28-4.964-15.28z" fill="#a80900" class="fill-000000"></path><path d="M256.003 323.33c50.636 0 91.83-41.195 91.83-91.83 0-50.641-41.194-91.84-91.83-91.84-13.489 0-26.486 2.858-38.63 8.496a5 5 0 1 0 4.211 9.071c10.814-5.021 22.395-7.566 34.419-7.566 45.121 0 81.83 36.713 81.83 81.84 0 45.121-36.709 81.83-81.83 81.83-45.127 0-81.84-36.709-81.84-81.83a81.795 81.795 0 0 1 20.107-53.733 5 5 0 1 0-7.539-6.568 91.78 91.78 0 0 0-22.568 60.301c0 50.634 41.199 91.829 91.84 91.829zM270.173 117.63c0-7.813-6.356-14.17-14.17-14.17s-14.17 6.356-14.17 14.17 6.356 14.17 14.17 14.17 14.17-6.357 14.17-14.17zm-18.34 0c0-2.299 1.871-4.17 4.17-4.17s4.17 1.871 4.17 4.17-1.871 4.17-4.17 4.17-4.17-1.871-4.17-4.17zM312.926 147.064c4.903 0 9.677-2.543 12.296-7.083a14.067 14.067 0 0 0 1.418-10.747 14.072 14.072 0 0 0-6.593-8.603 14.077 14.077 0 0 0-10.761-1.421 14.077 14.077 0 0 0-8.605 6.603c-3.901 6.77-1.577 15.453 5.186 19.358a14.082 14.082 0 0 0 7.059 1.893zm-3.584-16.253a4.144 4.144 0 0 1 2.532-1.941 4.148 4.148 0 0 1 3.168.419 4.17 4.17 0 0 1 1.521 5.689l-.003.004a4.175 4.175 0 0 1-5.697 1.527c-1.988-1.147-2.669-3.706-1.521-5.698zM354.663 188.771c2.396 0 4.825-.608 7.046-1.889h.001a14.07 14.07 0 0 0 6.607-8.605 14.085 14.085 0 0 0-1.413-10.752 14.069 14.069 0 0 0-8.601-6.608 14.064 14.064 0 0 0-10.748 1.412 14.069 14.069 0 0 0-6.607 8.604 14.072 14.072 0 0 0 1.412 10.746c2.621 4.546 7.398 7.092 12.303 7.092zm-4.056-15.25a4.138 4.138 0 0 1 1.946-2.531 4.135 4.135 0 0 1 3.159-.415 4.132 4.132 0 0 1 2.527 1.942 4.16 4.16 0 0 1 .418 3.172 4.136 4.136 0 0 1-1.942 2.529h.001a4.174 4.174 0 0 1-5.694-1.538 4.138 4.138 0 0 1-.415-3.159zM369.882 245.73a14.05 14.05 0 0 0 9.991-4.136 14.061 14.061 0 0 0 4.16-10.015c.015-7.809-6.333-14.174-14.16-14.189-7.803 0-14.164 6.352-14.181 14.17 0 7.813 6.355 14.169 14.168 14.17h.022zm-4.19-14.159c.005-2.305 1.88-4.181 4.171-4.181a4.176 4.176 0 0 1 4.17 4.18 4.136 4.136 0 0 1-1.224 2.946 4.118 4.118 0 0 1-2.929 1.214h-.019c-2.298 0-4.169-1.871-4.169-4.159zM347.472 300.77a14.074 14.074 0 0 0 7.067 1.899c4.895 0 9.664-2.534 12.292-7.065a14.082 14.082 0 0 0 1.424-10.764 14.058 14.058 0 0 0-6.594-8.596 14.071 14.071 0 0 0-10.742-1.432 14.087 14.087 0 0 0-8.625 6.606 14.067 14.067 0 0 0-1.418 10.747 14.07 14.07 0 0 0 6.596 8.605zm3.479-14.346a4.153 4.153 0 0 1 2.542-1.948 4.147 4.147 0 0 1 1.073-.142c.724 0 1.439.191 2.09.568a4.124 4.124 0 0 1 1.939 2.525 4.142 4.142 0 0 1-.418 3.164 4.182 4.182 0 0 1-5.701 1.521l-.003-.002a4.134 4.134 0 0 1-1.937-2.528 4.138 4.138 0 0 1 .415-3.158zM316.516 316.482a14.05 14.05 0 0 0-10.742 1.401 14.06 14.06 0 0 0-6.617 8.589 14.08 14.08 0 0 0 1.401 10.76 14.066 14.066 0 0 0 8.588 6.614 14.094 14.094 0 0 0 10.765-1.405 14.08 14.08 0 0 0 6.61-8.598 14.054 14.054 0 0 0-1.405-10.751 14.088 14.088 0 0 0-8.6-6.61zm.348 14.762a4.143 4.143 0 0 1-1.947 2.533 4.14 4.14 0 0 1-3.168.414 4.13 4.13 0 0 1-2.521-1.941l-.004-.006a4.142 4.142 0 0 1-.413-3.167 4.133 4.133 0 0 1 1.952-2.527 4.12 4.12 0 0 1 3.153-.411 4.146 4.146 0 0 1 2.536 1.951c.556.961.701 2.08.412 3.154zM241.692 345.34v.01c0 7.819 6.353 14.18 14.15 14.18h.029c3.779 0 7.331-1.468 10.005-4.137a14.054 14.054 0 0 0 4.156-10.013c.015-7.809-6.333-14.175-14.16-14.19-7.802-.001-14.163 6.347-14.18 14.15zm18.341.03a4.133 4.133 0 0 1-1.22 2.944 4.141 4.141 0 0 1-2.952 1.215h-.009c-2.293 0-4.158-1.872-4.16-4.175.009-2.297 1.883-4.165 4.171-4.165a4.178 4.178 0 0 1 4.17 4.181zM206.023 317.76c-6.758-3.903-15.442-1.588-19.355 5.162l-.004.008c-3.904 6.758-1.59 15.441 5.165 19.357a14.095 14.095 0 0 0 10.773 1.428 14.041 14.041 0 0 0 8.585-6.586 14.077 14.077 0 0 0 1.435-10.754 14.075 14.075 0 0 0-6.599-8.615zm-3.493 14.364a4.107 4.107 0 0 1-2.516 1.931 4.137 4.137 0 0 1-3.173-.42 4.184 4.184 0 0 1-1.521-5.701 4.181 4.181 0 0 1 5.697-1.516 4.137 4.137 0 0 1 1.94 2.532 4.134 4.134 0 0 1-.427 3.174zM153.604 301.957a14.073 14.073 0 0 0 10.758-1.401c6.773-3.889 9.118-12.566 5.223-19.354a14.091 14.091 0 0 0-8.611-6.615 14.055 14.055 0 0 0-10.737 1.41 14.075 14.075 0 0 0-6.618 8.594 14.066 14.066 0 0 0 1.398 10.748 14.055 14.055 0 0 0 8.587 6.618zm-.331-14.762a4.14 4.14 0 0 1 1.948-2.529l.012-.006a4.11 4.11 0 0 1 3.149-.413c1.079.29 1.98.981 2.533 1.942a4.176 4.176 0 0 1-1.539 5.698 4.13 4.13 0 0 1-3.168.413 4.129 4.129 0 0 1-2.524-1.947 4.134 4.134 0 0 1-.411-3.158zM142.134 217.13a14.086 14.086 0 0 0-10.001 4.126 14.072 14.072 0 0 0-4.17 10.014 14.07 14.07 0 0 0 4.14 10.033 14.057 14.057 0 0 0 10.011 4.157h.029c3.772 0 7.32-1.465 9.993-4.128a14.077 14.077 0 0 0 4.167-10.012 14.075 14.075 0 0 0-4.141-10.036 14.05 14.05 0 0 0-10.01-4.154h-.018zm4.169 14.17a4.147 4.147 0 0 1-1.225 2.948 4.223 4.223 0 0 1-2.955 1.212 4.132 4.132 0 0 1-2.942-1.221 4.138 4.138 0 0 1-1.218-2.949 4.141 4.141 0 0 1 1.225-2.946 4.15 4.15 0 0 1 2.947-1.214h.018c1.106 0 2.147.433 2.932 1.219a4.143 4.143 0 0 1 1.218 2.951zM164.611 162.115c-6.761-3.92-15.445-1.61-19.365 5.147-3.918 6.759-1.608 15.445 5.148 19.363a14.085 14.085 0 0 0 7.085 1.909c4.89 0 9.654-2.53 12.278-7.056 3.92-6.758 1.611-15.445-5.146-19.363zm-3.504 14.347a4.174 4.174 0 0 1-5.696 1.513 4.174 4.174 0 0 1-1.514-5.696 4.143 4.143 0 0 1 2.534-1.936 4.148 4.148 0 0 1 3.162.422 4.171 4.171 0 0 1 1.514 5.697zM202.99 119.086a14.082 14.082 0 0 0-10.767 1.387 14.075 14.075 0 0 0-6.625 8.598 14.066 14.066 0 0 0 1.397 10.748 14.074 14.074 0 0 0 8.587 6.623 14.083 14.083 0 0 0 10.759-1.396 14.062 14.062 0 0 0 6.619-8.587 14.075 14.075 0 0 0-1.393-10.749 14.06 14.06 0 0 0-8.577-6.624zm.317 14.767a4.125 4.125 0 0 1-1.947 2.522 4.127 4.127 0 0 1-3.166.413 4.14 4.14 0 0 1-2.528-1.955 4.126 4.126 0 0 1-.411-3.158 4.137 4.137 0 0 1 1.948-2.529 4.153 4.153 0 0 1 3.171-.409 4.133 4.133 0 0 1 2.521 1.947l.003.005c.553.967.699 2.09.409 3.164zM341.743 394a5 5 0 0 0-5-5H174.988c-2.762 0-5 2.238-5 5s2.238 5 5 5h161.755a5 5 0 0 0 5-5zM207.95 416.275a5 5 0 1 0 0 10h95.83a5 5 0 1 0 0-10h-95.83z" fill="#a80900" class="fill-000000"></path></svg>