<svg viewBox="0 0 24 24" xml:space="preserve" xmlns="http://www.w3.org/2000/svg"><path d="m20.854 4.146-2-1.999A.498.498 0 0 0 18.5 2H14v-.5c0-.827-.673-1.5-1.5-1.5h-1c-.827 0-1.5.673-1.5 1.5V2H5.5a.498.498 0 0 0-.354.147l-2 2A.5.5 0 0 0 3 4.5v6a.5.5 0 0 0 .146.354l2 1.999c.09.09.216.147.354.147H10v9.5c0 .827.673 1.5 1.5 1.5h1c.827 0 1.5-.673 1.5-1.5V13h4.5a.498.498 0 0 0 .354-.147l2-2A.5.5 0 0 0 21 10.5v-6a.5.5 0 0 0-.146-.354zm-8.577 17.77a.498.498 0 0 1-.554 0L11 21.434v-1.202l1 .667 1-.667v1.202l-.723.482zm0-3a.498.498 0 0 1-.554 0L11 18.434v-1.202l1 .667 1-.667v1.202l-.723.482zm0-3a.498.498 0 0 1-.554 0L11 15.434v-1.202l1 .667 1-.667v1.202l-.723.482z" fill="#a80900" class="fill-303c42 fill-ffffff"></path></svg>