<svg viewBox="0 0 32 32" xml:space="preserve" xmlns="http://www.w3.org/2000/svg" enable-background="new 0 0 32 32"><path d="M22 26H10c-1.1 0-2-.9-2-2v0c0-1.1.9-2 2-2h12c1.1 0 2 .9 2 2v0c0 1.1-.9 2-2 2zM19 30h-6c-1.1 0-2-.9-2-2v0c0-1.1.9-2 2-2h6c1.1 0 2 .9 2 2v0c0 1.1-.9 2-2 2zM10 6h12c1.1 0 2 .9 2 2v0c0 1.1-.9 2-2 2H10c-1.1 0-2-.9-2-2v0c0-1.1.9-2 2-2zM13 2h6c1.1 0 2 .9 2 2v0c0 1.1-.9 2-2 2h-6c-1.1 0-2-.9-2-2v0c0-1.1.9-2 2-2zM18 12.5h-4L12 16l2 3.5h4l2-3.5z" fill="none" stroke="#a80900" stroke-width="2" stroke-linecap="round" stroke-linejoin="round" stroke-miterlimit="10" class="stroke-000000"></path><path d="M19 18h5c1.1 0 2 .9 2 2v0c0 1.1-.9 2-2 2H8c-1.1 0-2-.9-2-2v0c0-1.1.9-2 2-2h5.1M13.1 14H8c-1.1 0-2-.9-2-2v0c0-1.1.9-2 2-2h16c1.1 0 2 .9 2 2v0c0 1.1-.9 2-2 2h-5.2M18.8 14H26c1.1 0 2 .9 2 2v0c0 1.1-.9 2-2 2h-7M13.1 18H6c-1.1 0-2-.9-2-2v0c0-1.1.9-2 2-2h7.1" fill="none" stroke="#a80900" stroke-width="2" stroke-linecap="round" stroke-linejoin="round" stroke-miterlimit="10" class="stroke-000000"></path></svg>