<svg overflow="visible" viewBox="0 0 512 512" xml:space="preserve" xmlns="http://www.w3.org/2000/svg" xmlns:xlink="http://www.w3.org/1999/xlink"><ellipse cx="255.644" cy="255.246" fill="#312d2d" rx="237.886" ry="228.11" stroke="#a80900" stroke-width="30.372" class="fill-ffffff stroke-000000"></ellipse><path d="M432.507 275.115s-7.651-.681-11.556-10.073c0 0-3.308-12.748-2.753-17.294l-.485-10.346s14.792-12.909 6.853-21.922c0 0-11.006-1.278-13.896-2.131l-4.163-3.187-4.395-6.396-8.667-2.554-2.565-8.604-5.417-1.597-4.293 6.583-82.738-25.548-2.401 2.823-167.894-52.206-2.549-4.675-2.568-1.935-4.182-7.119-11.279.994-.959-.085-1.337 2.549-.202.359-2.265 4.016-12.065-4.34s-10.14 13.105-6.087 23.323l10.474 3.088-4.445 12.425.19 2.016-5.128 20.075 26.656 9.424.167 4.759 81.908 25.698s26.593 10.974 22.651 37.675l-6.169 20.944s23.314 26.1 62.489 29.004c0 0 27.214-1.793 30.456 19.177 0 0-2.564 55.184-2.571 55.363-.208 4.427-1.211 8.905-2.232 13.195-1.736 7.277-5.195 10.872-8.241 16.98-7.916 15.881 14.735 17.868 24.483 20.256 15.309 3.748 30.743 7.498 46.362 9.736l2.401-2.825 1.528 2.806s1.206 10.558 12.192 7.909c0 0 4.333 1.275 4.931-8.753l3.975 1.172s13.111-16.545 10.151-46.458c-2.963-29.914-6.275-79.945-6.275-79.945s1.879-21.031 20.533-25.738c0 0 10.241-.123 14.468 1.515 0 0 7.007 2.85 9.219-1.993-.002.001 2.975-3.442-2.31-8.14zm-126.828 5.455c-.495 2.379-1.109 3.855-1.109 3.855s.699-2.375 1.109-3.855c.058-.278.113-.567.166-.869-.221.605-.77 2.274-1.865 5.729-4.1 12.92-28.095 11.443-28.095 11.443-32.421-4.841-41.199-13.021-41.199-13.021-19.687-11.099-14.661-28.16-14.661-28.16 6.253-20.231 26.631-17.468 26.631-17.468 23.883 5.859 25.489 8.393 25.489 8.393l.784-.652c2.145 7.697-2.654 15.996-2.654 15.996-12.785 17.426-24.798 16.243-24.798 16.243l-1.069 2.625c14.606 6.366 31.187-14.947 31.187-14.947s3.922-.316 4.159-1.129c.239-.813 2.063-9.99 2.063-9.99l8.985-3.534c16.014 8.46 16.271 21.524 15.043 28.472.236-.648.095-.078-.166.869z" fill="#a80900" class="fill-000000"></path><path d="M432.507 275.115s-7.651-.681-11.556-10.073c0 0-3.308-12.748-2.753-17.294l-.485-10.346s14.792-12.909 6.853-21.922c0 0-11.006-1.278-13.896-2.131l-4.163-3.187-4.395-6.396-8.667-2.554-2.565-8.604-5.417-1.597-4.293 6.583-82.738-25.548-2.401 2.823-167.894-52.206-2.549-4.675-2.568-1.935-4.182-7.119-11.279.994-.959-.085-1.337 2.549-.202.359-2.265 4.016-12.065-4.34s-10.14 13.105-6.087 23.323l10.474 3.088-4.445 12.425.19 2.016-5.128 20.075 26.656 9.424.167 4.759 81.908 25.698s26.593 10.974 22.651 37.675l-6.169 20.944s23.314 26.1 62.489 29.004c0 0 27.214-1.793 30.456 19.177 0 0-2.564 55.184-2.571 55.363-.208 4.427-1.211 8.905-2.232 13.195-1.736 7.277-5.195 10.872-8.241 16.98-7.916 15.881 14.735 17.868 24.483 20.256 15.309 3.748 30.743 7.498 46.362 9.736l2.401-2.825 1.528 2.806s1.206 10.558 12.192 7.909c0 0 4.333 1.275 4.931-8.753l3.975 1.172s13.111-16.545 10.151-46.458c-2.963-29.914-6.275-79.945-6.275-79.945s1.879-21.031 20.533-25.738c0 0 10.241-.123 14.468 1.515 0 0 7.007 2.85 9.219-1.993-.002.001 2.975-3.442-2.31-8.14zm-126.828 5.455c-.495 2.379-1.109 3.855-1.109 3.855s.699-2.375 1.109-3.855c.058-.278.113-.567.166-.869-.221.605-.77 2.274-1.865 5.729-4.1 12.92-28.095 11.443-28.095 11.443-32.421-4.841-41.199-13.021-41.199-13.021-19.687-11.099-14.661-28.16-14.661-28.16 6.253-20.231 26.631-17.468 26.631-17.468 23.883 5.859 25.489 8.393 25.489 8.393l.784-.652c2.145 7.697-2.654 15.996-2.654 15.996-12.785 17.426-24.798 16.243-24.798 16.243l-1.069 2.625c14.606 6.366 31.187-14.947 31.187-14.947s3.922-.316 4.159-1.129c.239-.813 2.063-9.99 2.063-9.99l8.985-3.534c16.014 8.46 16.271 21.524 15.043 28.472.236-.648.095-.078-.166.869z" fill="none" stroke="#a80900" stroke-width="1.129" class="stroke-000000"></path><defs><ellipse cx="258.049" cy="256.449" id="a" rx="237.886" ry="228.109"></ellipse></defs><clipPath id="b"><use xlink:href="#a"></use></clipPath><path clip-path="url(#b)" d="m76.784 468.902 68.05-81.371-54.125 87.902M367.698 35.098l-78.454 129.556 90.52-125.383M464.617 56.281 354.893 172.558l121.208-99.799M322.293 27.209l-43.382 116.015L334.446 29.32M497.926 395.063l-194.695-84.501 195.399 74.87M505.613 312.902l-168.638-41.989 170.006 28.555M504.526 285.33l-117.084-20.642 116.515 6.958M498.736 88.602l-122.44 95.882 127.197-88.766M3 160.861l84.729 15.698-79.697-29.381M11.745 186.833l81.901 5.049-78.45 3.889M9.753 318.898l86.566-37.97-86.071 47.54M71.488 405.337l55.187-50.834-51.369 54.747M292.427 499.357l-18.115-124.881 33.254 121.795M228.519 30.691l10.394 84.446-4.46-86.124M441.086 53.632l-63.91 77.486 69.363-74.178M17.144 140.722l75.837 29.405-75.113-39.221" fill="#a80900" class="fill-000000"></path></svg>